<?xml version="1.0" encoding="UTF-8" standalone="no"?>
<!DOCTYPE svg PUBLIC "-//W3C//DTD SVG 1.0//EN" "http://www.w3.org/TR/2001/PR-SVG-20010719/DTD/svg10.dtd">
<svg width="77cm" height="52cm" viewBox="-117 -297 1528 1021" xmlns="http://www.w3.org/2000/svg" xmlns:xlink="http://www.w3.org/1999/xlink">
  <defs/>
  <g id="Arrière-plan">
    <g>
      <line style="fill: none; stroke-opacity: 1; stroke-width: 2; stroke: #000000" x1="669.449" y1="-66.8594" x2="892.292" y2="-71.6446"/>
      <polygon style="fill: #000000; fill-opacity: 1; stroke-opacity: 1; stroke-width: 2; stroke: #000000" fill-rule="evenodd" points="899.79,-71.8056 889.9,-66.5921 892.292,-71.6446 889.685,-76.5898 "/>
    </g>
    <ellipse style="fill: #c3d927; fill-opacity: 1; stroke-opacity: 1; stroke-width: 2; stroke: #c3d927" cx="377.71" cy="130.75" rx="60.5" ry="60.5"/>
    <g>
      <line style="fill: none; stroke-opacity: 1; stroke-width: 2; stroke: #000000" x1="561.434" y1="-13.9651" x2="433.662" y2="86.6785"/>
      <polygon style="fill: #000000; fill-opacity: 1; stroke-opacity: 1; stroke-width: 2; stroke: #000000" fill-rule="evenodd" points="427.77,91.3193 432.532,81.2037 433.662,86.6785 438.719,89.0594 "/>
    </g>
    <text font-size="27.0933" style="fill: #000000; fill-opacity: 1; stroke: none;text-anchor:middle;font-family:sans-serif;font-style:normal;font-weight:normal" x="377.71" y="140.125">
      <tspan x="377.71" y="140.125">ecosystem</tspan>
    </text>
    <ellipse style="fill: #000000; fill-opacity: 1; stroke-opacity: 1; stroke-width: 4; stroke: #000000" cx="627.442" cy="-65.9574" rx="82.0196" ry="82.0196"/>
    <g>
      <rect style="fill: #000000; fill-opacity: 1; stroke: none" x="556.792" y="-87.0074" width="141.3" height="42.1"/>
      <text font-size="36.1244" style="fill: #ffffff; fill-opacity: 1; stroke: none;text-anchor:middle;font-family:sans-serif;font-style:normal;font-weight:normal" x="627.442" y="-53.4574">
        <tspan x="627.442" y="-53.4574">3worlds</tspan>
      </text>
    </g>
    <ellipse style="fill: #fef88f; fill-opacity: 1; stroke-opacity: 1; stroke-width: 2; stroke: #fef88f" cx="851.738" cy="145.881" rx="60.5" ry="60.5"/>
    <text font-size="27.0933" style="fill: #000000; fill-opacity: 1; stroke: none;text-anchor:middle;font-family:sans-serif;font-style:normal;font-weight:normal" x="851.738" y="155.256">
      <tspan x="851.738" y="155.256">experiment</tspan>
    </text>
    <g>
      <line style="fill: none; stroke-opacity: 1; stroke-width: 2; stroke: #000000" x1="688.513" y1="-8.27845" x2="799.962" y2="96.981"/>
      <polygon style="fill: #000000; fill-opacity: 1; stroke-opacity: 1; stroke-width: 2; stroke: #000000" fill-rule="evenodd" points="805.415,102.131 794.711,98.8995 799.962,96.981 801.578,91.6294 "/>
    </g>
    <ellipse style="fill: #bfbfbf; fill-opacity: 1; stroke-opacity: 1; stroke-width: 2; stroke: #bfbfbf" cx="604.472" cy="239.7" rx="60.5" ry="60.5"/>
    <text font-size="27.0933" style="fill: #000000; fill-opacity: 1; stroke: none;text-anchor:middle;font-family:sans-serif;font-style:normal;font-weight:normal" x="604.472" y="232.142">
      <tspan x="604.472" y="232.142">data</tspan>
      <tspan x="604.472" y="266.008">Definition</tspan>
    </text>
    <g>
      <line style="fill: none; stroke-opacity: 1; stroke-width: 2; stroke: #000000" x1="621.147" y1="17.8073" x2="609.806" y2="168.726"/>
      <polygon style="fill: #000000; fill-opacity: 1; stroke-opacity: 1; stroke-width: 2; stroke: #000000" fill-rule="evenodd" points="609.244,176.204 605.007,165.858 609.806,168.726 614.979,166.607 "/>
    </g>
    <ellipse style="fill: #ffc0cb; fill-opacity: 1; stroke-opacity: 1; stroke-width: 2; stroke: #ffc0cb" cx="963.498" cy="-73.1736" rx="60.5" ry="60.5"/>
    <text font-size="27.0933" style="fill: #000000; fill-opacity: 1; stroke: none;text-anchor:middle;font-family:sans-serif;font-style:normal;font-weight:normal" x="963.498" y="-80.7319">
      <tspan x="963.498" y="-80.7319">user</tspan>
      <tspan x="963.498" y="-46.8653">Interface</tspan>
    </text>
    <g>
      <line style="fill: none; stroke-opacity: 1; stroke-width: 2; stroke: #000000" x1="131.45" y1="183.289" x2="44.0759" y2="170.231"/>
      <polygon style="fill: #000000; fill-opacity: 1; stroke-opacity: 1; stroke-width: 2; stroke: #000000" fill-rule="evenodd" points="36.6583,169.122 47.2875,165.655 44.0759,170.231 45.8094,175.545 "/>
    </g>
    <g>
      <line style="fill: none; stroke-opacity: 1; stroke-width: 2; stroke: #000000" x1="318.745" y1="148.205" x2="230.961" y2="174.191"/>
      <polygon style="fill: #000000; fill-opacity: 1; stroke-opacity: 1; stroke-width: 2; stroke: #000000" fill-rule="evenodd" points="223.77,176.32 231.939,168.687 230.961,174.191 234.777,178.276 "/>
    </g>
    <g>
      <line style="fill: none; stroke-opacity: 1; stroke-width: 2; stroke: #000000" x1="369.225" y1="191.659" x2="354.621" y2="296.491"/>
      <polygon style="fill: #000000; fill-opacity: 1; stroke-opacity: 1; stroke-width: 2; stroke: #000000" fill-rule="evenodd" points="353.587,303.92 350.014,293.325 354.621,296.491 359.918,294.705 "/>
    </g>
    <ellipse style="fill: #a9b932; fill-opacity: 1; stroke-opacity: 1; stroke-width: 2; stroke: #a9b932" cx="3.17421" cy="164.118" rx="30.625" ry="30.625"/>
    <text font-size="13.5467" style="fill: #000000; fill-opacity: 1; stroke: none;text-anchor:middle;font-family:sans-serif;font-style:normal;font-weight:normal" x="3.17416" y="160.351">
      <tspan x="3.17416" y="160.351">category</tspan>
      <tspan x="3.17416" y="177.284">Set</tspan>
    </text>
    <ellipse style="fill: #bfbfbf; fill-opacity: 1; stroke-opacity: 1; stroke-width: 2; stroke: #bfbfbf" cx="529.407" cy="418.425" rx="45.375" ry="45.375"/>
    <text font-size="20.32" style="fill: #000000; fill-opacity: 1; stroke: none;text-anchor:middle;font-family:sans-serif;font-style:normal;font-weight:normal" x="529.406" y="425.474">
      <tspan x="529.406" y="425.474">dimensioner</tspan>
    </text>
    <ellipse style="fill: #bfbfbf; fill-opacity: 1; stroke-opacity: 1; stroke-width: 2; stroke: #bfbfbf" cx="725.485" cy="418.015" rx="45.375" ry="45.375"/>
    <text font-size="20.32" style="fill: #000000; fill-opacity: 1; stroke: none;text-anchor:middle;font-family:sans-serif;font-style:normal;font-weight:normal" x="725.486" y="425.066">
      <tspan x="725.486" y="425.066">record</tspan>
    </text>
    <g>
      <line style="fill: none; stroke-opacity: 1; stroke-width: 2; stroke: #000000" x1="580.661" y1="296.392" x2="551.1" y2="366.774"/>
      <polygon style="fill: #000000; fill-opacity: 1; stroke-opacity: 1; stroke-width: 2; stroke: #000000" fill-rule="evenodd" points="548.196,373.689 547.459,362.533 551.1,366.774 556.678,366.406 "/>
    </g>
    <g>
      <line style="fill: none; stroke-opacity: 1; stroke-width: 2; stroke: #000000" x1="638.994" y1="290.569" x2="693.982" y2="371.595"/>
      <polygon style="fill: #000000; fill-opacity: 1; stroke-opacity: 1; stroke-width: 2; stroke: #000000" fill-rule="evenodd" points="698.194,377.8 688.441,372.334 693.982,371.595 696.715,366.718 "/>
    </g>
    <ellipse style="fill: #bfbfbf; fill-opacity: 1; stroke-opacity: 1; stroke-width: 2; stroke: #bfbfbf" cx="761.941" cy="527.919" rx="30.625" ry="30.625"/>
    <text font-size="13.5467" style="fill: #000000; fill-opacity: 1; stroke: none;text-anchor:middle;font-family:sans-serif;font-style:normal;font-weight:normal" x="761.94" y="532.62">
      <tspan x="761.94" y="532.62">table</tspan>
    </text>
    <ellipse style="fill: #bfbfbf; fill-opacity: 1; stroke-opacity: 1; stroke-width: 2; stroke: #bfbfbf" cx="849.285" cy="461.089" rx="30.625" ry="30.625"/>
    <text font-size="13.5467" style="fill: #000000; fill-opacity: 1; stroke: none;text-anchor:middle;font-family:sans-serif;font-style:normal;font-weight:normal" x="849.286" y="465.79">
      <tspan x="849.286" y="465.79">field</tspan>
    </text>
    <g>
      <line style="fill: none; stroke-opacity: 1; stroke-width: 2; stroke: #000000" x1="769.288" y1="433.255" x2="810.22" y2="447.497"/>
      <polygon style="fill: #000000; fill-opacity: 1; stroke-opacity: 1; stroke-width: 2; stroke: #000000" fill-rule="evenodd" points="817.304,449.962 806.216,451.398 810.22,447.497 809.502,441.953 "/>
    </g>
    <g>
      <path style="fill: none; stroke-opacity: 1; stroke-width: 2; stroke: #000000" d="M 734.464 512.273 C 719.728,503.881 718.364,486.459 719.679,473.827"/>
      <polygon style="fill: #000000; fill-opacity: 1; stroke-opacity: 1; stroke-width: 2; stroke: #000000" fill-rule="evenodd" points="720.455,466.367 724.393,476.831 719.679,473.827 714.447,475.796 "/>
    </g>
    <g>
      <path style="fill: none; stroke-opacity: 1; stroke-width: 2; stroke: #000000" d="M 755.113 453.695 C 771.883,473.891 765.676,474.552 764.828,486.665"/>
      <polygon style="fill: #000000; fill-opacity: 1; stroke-opacity: 1; stroke-width: 2; stroke: #000000" fill-rule="evenodd" points="764.304,494.147 760.015,483.822 764.828,486.665 769.991,484.521 "/>
    </g>
    <g>
      <path style="fill: none; stroke-opacity: 1; stroke-width: 2; stroke: #000000" d="M -28.3549 161.759 C -57.6337,159.569 -66.1855,168.654 -76.5607,186.768"/>
      <polygon style="fill: #000000; fill-opacity: 1; stroke-opacity: 1; stroke-width: 2; stroke: #000000" fill-rule="evenodd" points="-80.2883,193.276 -79.6568,182.113 -76.5607,186.768 -70.9794,187.083 "/>
    </g>
    <g>
      <path style="fill: none; stroke-opacity: 1; stroke-width: 2; stroke: #000000" d="M -70.7164 222.077 C -46.3098,229.455 -30.5813,219.305 -18.4035,199.395"/>
      <polygon style="fill: #000000; fill-opacity: 1; stroke-opacity: 1; stroke-width: 2; stroke: #000000" fill-rule="evenodd" points="-14.4901,192.997 -15.4426,204.137 -18.4035,199.395 -23.9733,198.919 "/>
    </g>
    <ellipse style="fill: #fef88f; fill-opacity: 1; stroke-opacity: 1; stroke-width: 2; stroke: #fef88f" cx="1055.41" cy="77.3924" rx="45.375" ry="45.375"/>
    <g>
      <rect style="fill: #fef88f; fill-opacity: 1; stroke: none" x="1020.51" y="52.8424" width="69.8" height="49.1"/>
      <text font-size="20.32" style="fill: #000000; fill-opacity: 1; stroke: none;text-anchor:middle;font-family:sans-serif;font-style:normal;font-weight:normal" x="1055.41" y="71.7424">
        <tspan x="1055.41" y="71.7424">data</tspan>
        <tspan x="1055.41" y="97.1424">Source</tspan>
      </text>
    </g>
    <ellipse style="fill: #fef88f; fill-opacity: 1; stroke-opacity: 1; stroke-width: 2; stroke: #fef88f" cx="1191.75" cy="166.651" rx="45.375" ry="45.375"/>
    <g>
      <rect style="fill: #fef88f; fill-opacity: 1; stroke: none" x="1168.88" y="142.101" width="45.75" height="49.1"/>
      <text font-size="20.32" style="fill: #000000; fill-opacity: 1; stroke: none;text-anchor:middle;font-family:sans-serif;font-style:normal;font-weight:normal" x="1191.75" y="161.001">
        <tspan x="1191.75" y="161.001">data</tspan>
        <tspan x="1191.75" y="186.401">Sink</tspan>
      </text>
    </g>
    <ellipse style="fill: #ffc0cb; fill-opacity: 1; stroke-opacity: 1; stroke-width: 2; stroke: #ffc0cb" cx="1192.64" cy="34.679" rx="45.375" ry="45.375"/>
    <text font-size="20.32" style="fill: #000000; fill-opacity: 1; stroke: none;text-anchor:middle;font-family:sans-serif;font-style:normal;font-weight:normal" x="1192.64" y="41.729">
      <tspan x="1192.64" y="41.729">tab</tspan>
    </text>
    <g>
      <line style="fill: none; stroke-opacity: 1; stroke-width: 2; stroke: #000000" x1="1019.14" y1="-46.9839" x2="1141.87" y2="10.7811"/>
      <polygon style="fill: #000000; fill-opacity: 1; stroke-opacity: 1; stroke-width: 2; stroke: #000000" fill-rule="evenodd" points="1148.65,13.9751 1137.48,14.2404 1141.87,10.7811 1141.73,5.19249 "/>
    </g>
    <ellipse style="fill: #ffc0cb; fill-opacity: 1; stroke-opacity: 1; stroke-width: 2; stroke: #ffc0cb" cx="1375" cy="38.8854" rx="30.625" ry="30.625"/>
    <text font-size="13.5467" style="fill: #000000; fill-opacity: 1; stroke: none;text-anchor:middle;font-family:sans-serif;font-style:normal;font-weight:normal" x="1375" y="43.5854">
      <tspan x="1375" y="43.5854">container</tspan>
    </text>
    <g>
      <line style="fill: none; stroke-opacity: 1; stroke-width: 2; stroke: #000000" x1="1239" y1="35.7483" x2="1333.65" y2="37.9315"/>
      <polygon style="fill: #000000; fill-opacity: 1; stroke-opacity: 1; stroke-width: 2; stroke: #000000" fill-rule="evenodd" points="1341.15,38.1044 1331.03,42.8725 1333.65,37.9315 1331.26,32.8752 "/>
    </g>
    <ellipse style="fill: #fef88f; fill-opacity: 1; stroke-opacity: 1; stroke-width: 2; stroke: #fef88f" cx="853.689" cy="363.701" rx="45.375" ry="45.375"/>
    <text font-size="20.32" style="fill: #000000; fill-opacity: 1; stroke: none;text-anchor:middle;font-family:sans-serif;font-style:normal;font-weight:normal" x="853.689" y="358.051">
      <tspan x="853.689" y="358.051">time</tspan>
      <tspan x="853.689" y="383.451">Period</tspan>
    </text>
    <ellipse style="fill: #fef88f; fill-opacity: 1; stroke-opacity: 1; stroke-width: 2; stroke: #fef88f" cx="1049.56" cy="230.611" rx="45.375" ry="45.375"/>
    <text font-size="20.32" style="fill: #000000; fill-opacity: 1; stroke: none;text-anchor:middle;font-family:sans-serif;font-style:normal;font-weight:normal" x="1049.56" y="237.661">
      <tspan x="1049.56" y="237.661">treatment</tspan>
    </text>
    <ellipse style="fill: #fef88f; fill-opacity: 1; stroke-opacity: 1; stroke-width: 2; stroke: #fef88f" cx="988.065" cy="339.455" rx="45.375" ry="45.375"/>
    <text font-size="20.32" style="fill: #000000; fill-opacity: 1; stroke: none;text-anchor:middle;font-family:sans-serif;font-style:normal;font-weight:normal" x="988.065" y="346.505">
      <tspan x="988.065" y="346.505">design</tspan>
    </text>
    <ellipse style="fill: #fef88f; fill-opacity: 1; stroke-opacity: 1; stroke-width: 2; stroke: #fef88f" cx="1113.7" cy="432.673" rx="30.625" ry="30.625"/>
    <text font-size="13.5467" style="fill: #000000; fill-opacity: 1; stroke: none;text-anchor:middle;font-family:sans-serif;font-style:normal;font-weight:normal" x="1113.71" y="428.907">
      <tspan x="1113.71" y="428.907">model</tspan>
      <tspan x="1113.71" y="445.84">Change</tspan>
    </text>
    <g>
      <line style="fill: none; stroke-opacity: 1; stroke-width: 2; stroke: #000000" x1="908.275" y1="170.097" x2="997.99" y2="208.522"/>
      <polygon style="fill: #000000; fill-opacity: 1; stroke-opacity: 1; stroke-width: 2; stroke: #000000" fill-rule="evenodd" points="1004.88,211.475 993.723,212.134 997.99,208.522 997.66,202.942 "/>
    </g>
    <g>
      <line style="fill: none; stroke-opacity: 1; stroke-width: 2; stroke: #000000" x1="887.018" y1="195.976" x2="955.758" y2="293.581"/>
      <polygon style="fill: #000000; fill-opacity: 1; stroke-opacity: 1; stroke-width: 2; stroke: #000000" fill-rule="evenodd" points="960.076,299.713 950.23,294.416 955.758,293.581 958.406,288.658 "/>
    </g>
    <g>
      <line style="fill: none; stroke-opacity: 1; stroke-width: 2; stroke: #000000" x1="852.289" y1="207.369" x2="853.186" y2="307.587"/>
      <polygon style="fill: #000000; fill-opacity: 1; stroke-opacity: 1; stroke-width: 2; stroke: #000000" fill-rule="evenodd" points="853.254,315.087 848.164,305.132 853.186,307.587 858.164,305.042 "/>
    </g>
    <g>
      <line style="fill: none; stroke-opacity: 1; stroke-width: 2; stroke: #000000" x1="1063.59" y1="274.818" x2="1101.19" y2="393.246"/>
      <polygon style="fill: #000000; fill-opacity: 1; stroke-opacity: 1; stroke-width: 2; stroke: #000000" fill-rule="evenodd" points="1103.46,400.394 1095.67,392.376 1101.19,393.246 1105.2,389.35 "/>
    </g>
    <ellipse style="fill: #a9b932; fill-opacity: 1; stroke-opacity: 1; stroke-width: 2; stroke: #a9b932" cx="177.154" cy="190.119" rx="45.375" ry="45.375"/>
    <text font-size="20.32" style="fill: #000000; fill-opacity: 1; stroke: none;text-anchor:middle;font-family:sans-serif;font-style:normal;font-weight:normal" x="177.154" y="197.169">
      <tspan x="177.154" y="197.169">structure</tspan>
    </text>
    <ellipse style="fill: #dcf050; fill-opacity: 1; stroke-opacity: 1; stroke-width: 2; stroke: #dcf050" cx="346.879" cy="352.069" rx="45.375" ry="45.375"/>
    <text font-size="20.32" style="fill: #000000; fill-opacity: 1; stroke: none;text-anchor:middle;font-family:sans-serif;font-style:normal;font-weight:normal" x="346.88" y="359.118">
      <tspan x="346.88" y="359.118">dynamics</tspan>
    </text>
    <ellipse style="fill: #a9b932; fill-opacity: 1; stroke-opacity: 1; stroke-width: 2; stroke: #a9b932" cx="-92.9376" cy="215.36" rx="22.225" ry="22.225"/>
    <text font-size="9.03111" style="fill: #000000; fill-opacity: 1; stroke: none;text-anchor:middle;font-family:sans-serif;font-style:normal;font-weight:normal" x="-92.9386" y="218.485">
      <tspan x="-92.9386" y="218.485">category</tspan>
    </text>
    <ellipse style="fill: #a9b932; fill-opacity: 1; stroke-opacity: 1; stroke-width: 2; stroke: #a9b932" cx="42.1474" cy="286.955" rx="30.625" ry="30.625"/>
    <text font-size="13.5467" style="fill: #000000; fill-opacity: 1; stroke: none;text-anchor:middle;font-family:sans-serif;font-style:normal;font-weight:normal" x="42.1474" y="291.656">
      <tspan x="42.1474" y="291.656">component</tspan>
    </text>
    <g>
      <line style="fill: none; stroke-opacity: 1; stroke-width: 2; stroke: #000000" x1="139.472" y1="217.148" x2="75.7021" y2="262.887"/>
      <polygon style="fill: #000000; fill-opacity: 1; stroke-opacity: 1; stroke-width: 2; stroke: #000000" fill-rule="evenodd" points="69.6077,267.259 74.8194,257.367 75.7021,262.887 80.6478,265.493 "/>
    </g>
    <g>
      <line style="fill: none; stroke-opacity: 1; stroke-width: 2; stroke: #000000" x1="141.436" y1="160.56" x2="61.0134" y2="94.0042"/>
      <polygon style="fill: #000000; fill-opacity: 1; stroke-opacity: 1; stroke-width: 2; stroke: #000000" fill-rule="evenodd" points="55.2355,89.2225 66.1273,91.7462 61.0134,94.0042 59.7516,99.4501 "/>
    </g>
    <ellipse style="fill: #a9b932; fill-opacity: 1; stroke-opacity: 1; stroke-width: 2; stroke: #a9b932" cx="29.1495" cy="67.6344" rx="30.625" ry="30.625"/>
    <text font-size="13.5467" style="fill: #000000; fill-opacity: 1; stroke: none;text-anchor:middle;font-family:sans-serif;font-style:normal;font-weight:normal" x="29.1494" y="63.8677">
      <tspan x="29.1494" y="63.8677">relation</tspan>
      <tspan x="29.1494" y="80.8011">Type</tspan>
    </text>
    <ellipse style="fill: #dcf050; fill-opacity: 1; stroke-opacity: 1; stroke-width: 2; stroke: #dcf050" cx="145.315" cy="412.685" rx="30.625" ry="30.625"/>
    <text font-size="13.5467" style="fill: #000000; fill-opacity: 1; stroke: none;text-anchor:middle;font-family:sans-serif;font-style:normal;font-weight:normal" x="145.315" y="417.384">
      <tspan x="145.315" y="417.384">timeLine</tspan>
    </text>
    <g>
      <line style="fill: none; stroke-opacity: 1; stroke-width: 2; stroke: #000000" x1="302.479" y1="365.421" x2="184.915" y2="400.776"/>
      <polygon style="fill: #000000; fill-opacity: 1; stroke-opacity: 1; stroke-width: 2; stroke: #000000" fill-rule="evenodd" points="177.733,402.936 185.87,395.268 184.915,400.776 188.749,404.844 "/>
    </g>
    <ellipse style="fill: #dcf050; fill-opacity: 1; stroke-opacity: 1; stroke-width: 2; stroke: #dcf050" cx="45.6986" cy="448.303" rx="22.225" ry="22.225"/>
    <text font-size="9.03111" style="fill: #000000; fill-opacity: 1; stroke: none;text-anchor:middle;font-family:sans-serif;font-style:normal;font-weight:normal" x="45.6986" y="445.783">
      <tspan x="45.6986" y="445.783">time</tspan>
      <tspan x="45.6986" y="457.071">Model</tspan>
    </text>
    <g>
      <line style="fill: none; stroke-opacity: 1; stroke-width: 1.6; stroke: #000000" x1="115.535" y1="423.333" x2="74.903" y2="437.861"/>
      <polygon style="fill: #000000; fill-opacity: 1; stroke-opacity: 1; stroke-width: 1.6; stroke: #000000" fill-rule="evenodd" points="69.2532,439.881 75.4395,433.421 74.903,437.861 78.1329,440.954 "/>
    </g>
    <g>
      <line style="fill: none; stroke-opacity: 1; stroke-width: 1.6; stroke: #000000" x1="26.2644" y1="460.986" x2="-8.9593" y2="483.972"/>
      <polygon style="fill: #000000; fill-opacity: 1; stroke-opacity: 1; stroke-width: 1.6; stroke: #000000" fill-rule="evenodd" points="-13.984,487.251 -9.47045,479.529 -8.9593,483.972 -5.09834,486.229 "/>
    </g>
    <ellipse style="fill: #dcf050; fill-opacity: 1; stroke-opacity: 1; stroke-width: 2; stroke: #dcf050" cx="-30.4762" cy="498.014" rx="16.9" ry="16.9"/>
    <text font-size="7.90222" style="fill: #000000; fill-opacity: 1; stroke: none;text-anchor:middle;font-family:sans-serif;font-style:normal;font-weight:normal" x="-30.4762" y="500.739">
      <tspan x="-30.4762" y="500.739">process</tspan>
    </text>
    <ellipse style="fill: #dcf050; fill-opacity: 1; stroke-opacity: 1; stroke-width: 2; stroke: #dcf050" cx="-78.4204" cy="546.216" rx="13.3116" ry="13.3116"/>
    <text font-size="7.33778" style="fill: #000000; fill-opacity: 1; stroke: none;text-anchor:middle;font-family:sans-serif;font-style:normal;font-weight:normal" x="-78.4204" y="548.764">
      <tspan x="-78.4204" y="548.764">function</tspan>
    </text>
    <g>
      <line style="fill: none; stroke-opacity: 1; stroke-width: 1.6; stroke: #000000" x1="-43.1002" y1="510.706" x2="-62.8319" y2="530.543"/>
      <polygon style="fill: #000000; fill-opacity: 1; stroke-opacity: 1; stroke-width: 1.6; stroke: #000000" fill-rule="evenodd" points="-67.0632,534.797 -64.2575,526.305 -62.8319,530.543 -58.5855,531.946 "/>
    </g>
    <ellipse style="fill: #dcf050; fill-opacity: 1; stroke-opacity: 1; stroke-width: 2; stroke: #dcf050" cx="203.054" cy="497.007" rx="30.625" ry="30.625"/>
    <text font-size="13.5467" style="fill: #000000; fill-opacity: 1; stroke: none;text-anchor:middle;font-family:sans-serif;font-style:normal;font-weight:normal" x="203.054" y="501.708">
      <tspan x="203.054" y="501.708">lifeCycle</tspan>
    </text>
    <ellipse style="fill: #dcf050; fill-opacity: 1; stroke-opacity: 1; stroke-width: 2; stroke: #dcf050" cx="92.1234" cy="515.655" rx="22.225" ry="22.225"/>
    <text font-size="9.03111" style="fill: #000000; fill-opacity: 1; stroke: none;text-anchor:middle;font-family:sans-serif;font-style:normal;font-weight:normal" x="92.1234" y="518.779">
      <tspan x="92.1234" y="518.779">recruit</tspan>
    </text>
    <g>
      <line style="fill: none; stroke-opacity: 1; stroke-width: 1.6; stroke: #000000" x1="173.588" y1="501.96" x2="122.689" y2="510.517"/>
      <polygon style="fill: #000000; fill-opacity: 1; stroke-opacity: 1; stroke-width: 1.6; stroke: #000000" fill-rule="evenodd" points="116.772,511.511 123.999,506.24 122.689,510.517 125.325,514.13 "/>
    </g>
    <ellipse style="fill: #dcf050; fill-opacity: 1; stroke-opacity: 1; stroke-width: 2; stroke: #dcf050" cx="168.491" cy="598.209" rx="22.225" ry="22.225"/>
    <text font-size="9.03111" style="fill: #000000; fill-opacity: 1; stroke: none;text-anchor:middle;font-family:sans-serif;font-style:normal;font-weight:normal" x="168.491" y="601.333">
      <tspan x="168.491" y="601.333">produce</tspan>
    </text>
    <g>
      <line style="fill: none; stroke-opacity: 1; stroke-width: 1.6; stroke: #000000" x1="192.844" y1="526.903" x2="178.51" y2="568.873"/>
      <polygon style="fill: #000000; fill-opacity: 1; stroke-opacity: 1; stroke-width: 1.6; stroke: #000000" fill-rule="evenodd" points="176.571,574.551 175.371,565.688 178.51,568.873 182.942,568.273 "/>
    </g>
    <g>
      <line style="fill: none; stroke-opacity: 1; stroke-width: 2; stroke: #000000" x1="314.215" y1="384.986" x2="232.183" y2="467.653"/>
      <polygon style="fill: #000000; fill-opacity: 1; stroke-opacity: 1; stroke-width: 2; stroke: #000000" fill-rule="evenodd" points="226.9,472.977 230.394,462.357 232.183,467.653 237.493,469.4 "/>
    </g>
    <ellipse style="fill: #dcf050; fill-opacity: 1; stroke-opacity: 1; stroke-width: 2; stroke: #dcf050" cx="410.943" cy="499.835" rx="30.625" ry="30.625"/>
    <text font-size="13.5467" style="fill: #000000; fill-opacity: 1; stroke: none;text-anchor:middle;font-family:sans-serif;font-style:normal;font-weight:normal" x="410.944" y="504.536">
      <tspan x="410.944" y="504.536">initialiser</tspan>
    </text>
    <g>
      <line style="fill: none; stroke-opacity: 1; stroke-width: 2; stroke: #000000" x1="301.471" y1="342.684" x2="202.544" y2="322.238"/>
      <polygon style="fill: #000000; fill-opacity: 1; stroke-opacity: 1; stroke-width: 2; stroke: #000000" fill-rule="evenodd" points="195.199,320.72 206.005,317.848 202.544,322.238 203.981,327.641 "/>
    </g>
    <g>
      <line style="fill: none; stroke-opacity: 1; stroke-width: 2; stroke: #000000" x1="365.323" y1="394.611" x2="394.491" y2="461.888"/>
      <polygon style="fill: #000000; fill-opacity: 1; stroke-opacity: 1; stroke-width: 2; stroke: #000000" fill-rule="evenodd" points="397.475,468.77 388.909,461.584 394.491,461.888 398.084,457.606 "/>
    </g>
    <ellipse style="fill: #dcf050; fill-opacity: 1; stroke-opacity: 1; stroke-width: 2; stroke: #dcf050" cx="162.042" cy="313.867" rx="30.625" ry="30.625"/>
    <text font-size="13.5467" style="fill: #000000; fill-opacity: 1; stroke: none;text-anchor:middle;font-family:sans-serif;font-style:normal;font-weight:normal" x="162.042" y="310.099">
      <tspan x="162.042" y="310.099">stopping</tspan>
      <tspan x="162.042" y="327.033">Condition</tspan>
    </text>
    <ellipse style="fill: #dcf050; fill-opacity: 1; stroke-opacity: 1; stroke-width: 2; stroke: #dcf050" cx="291.937" cy="535.827" rx="30.625" ry="30.625"/>
    <text font-size="13.5467" style="fill: #000000; fill-opacity: 1; stroke: none;text-anchor:middle;font-family:sans-serif;font-style:normal;font-weight:normal" x="291.938" y="532.061">
      <tspan x="291.938" y="532.061">initial</tspan>
      <tspan x="291.938" y="548.995">State</tspan>
    </text>
    <g>
      <line style="fill: none; stroke-opacity: 1; stroke-width: 2; stroke: #000000" x1="333.596" y1="396.494" x2="303.784" y2="496.205"/>
      <polygon style="fill: #000000; fill-opacity: 1; stroke-opacity: 1; stroke-width: 2; stroke: #000000" fill-rule="evenodd" points="301.635,503.391 299.709,492.378 303.784,496.205 309.29,495.242 "/>
    </g>
    <ellipse style="fill: #dcf050; fill-opacity: 1; stroke-opacity: 1; stroke-width: 2; stroke: #dcf050" cx="343.099" cy="622.251" rx="22.225" ry="22.225"/>
    <text font-size="9.03111" style="fill: #000000; fill-opacity: 1; stroke: none;text-anchor:middle;font-family:sans-serif;font-style:normal;font-weight:normal" x="343.1" y="625.375">
      <tspan x="343.1" y="625.375">group</tspan>
    </text>
    <g>
      <line style="fill: none; stroke-opacity: 1; stroke-width: 1.6; stroke: #000000" x1="333.728" y1="643.464" x2="319.009" y2="676.784"/>
      <polygon style="fill: #000000; fill-opacity: 1; stroke-opacity: 1; stroke-width: 1.6; stroke: #000000" fill-rule="evenodd" points="316.584,682.272 316.158,673.338 319.009,676.784 323.476,676.57 "/>
    </g>
    <ellipse style="fill: #dcf050; fill-opacity: 1; stroke-opacity: 1; stroke-width: 2; stroke: #dcf050" cx="308.644" cy="700.246" rx="16.9" ry="16.9"/>
    <text font-size="7.90222" style="fill: #000000; fill-opacity: 1; stroke: none;text-anchor:middle;font-family:sans-serif;font-style:normal;font-weight:normal" x="308.644" y="702.971">
      <tspan x="308.644" y="702.971">individual</tspan>
    </text>
    <ellipse style="fill: #dcf050; fill-opacity: 1; stroke-opacity: 1; stroke-width: 2; stroke: #dcf050" cx="235.952" cy="640.26" rx="13.3116" ry="13.3116"/>
    <text font-size="7.33778" style="fill: #000000; fill-opacity: 1; stroke: none;text-anchor:middle;font-family:sans-serif;font-style:normal;font-weight:normal" x="235.952" y="638.224">
      <tspan x="235.952" y="638.224">parameter</tspan>
      <tspan x="235.952" y="647.396">Values</tspan>
    </text>
    <g>
      <line style="fill: none; stroke-opacity: 1; stroke-width: 1.6; stroke: #000000" x1="294.854" y1="688.867" x2="252.98" y2="654.312"/>
      <polygon style="fill: #000000; fill-opacity: 1; stroke-opacity: 1; stroke-width: 1.6; stroke: #000000" fill-rule="evenodd" points="248.352,650.493 257.069,652.499 252.98,654.312 251.977,658.67 "/>
    </g>
    <ellipse style="fill: #dcf050; fill-opacity: 1; stroke-opacity: 1; stroke-width: 2; stroke: #dcf050" cx="245.252" cy="709.504" rx="13.3116" ry="13.3116"/>
    <text font-size="7.33778" style="fill: #000000; fill-opacity: 1; stroke: none;text-anchor:middle;font-family:sans-serif;font-style:normal;font-weight:normal" x="245.252" y="707.468">
      <tspan x="245.252" y="707.468">variable</tspan>
      <tspan x="245.252" y="716.64">Values</tspan>
    </text>
    <g>
      <line style="fill: none; stroke-opacity: 1; stroke-width: 1.6; stroke: #000000" x1="308.038" y1="563.024" x2="327.315" y2="595.588"/>
      <polygon style="fill: #000000; fill-opacity: 1; stroke-opacity: 1; stroke-width: 1.6; stroke: #000000" fill-rule="evenodd" points="330.372,600.751 322.854,595.905 327.315,595.588 329.738,591.83 "/>
    </g>
    <g>
      <line style="fill: none; stroke-opacity: 1; stroke-width: 1.6; stroke: #000000" x1="295.102" y1="566.977" x2="306.054" y2="674.755"/>
      <polygon style="fill: #000000; fill-opacity: 1; stroke-opacity: 1; stroke-width: 1.6; stroke: #000000" fill-rule="evenodd" points="306.66,680.724 301.872,673.169 306.054,674.755 309.831,672.36 "/>
    </g>
    <g>
      <line style="fill: none; stroke-opacity: 1; stroke-width: 1.6; stroke: #000000" x1="290.931" y1="702.833" x2="267.104" y2="706.312"/>
      <polygon style="fill: #000000; fill-opacity: 1; stroke-opacity: 1; stroke-width: 1.6; stroke: #000000" fill-rule="evenodd" points="261.167,707.179 268.505,702.065 267.104,706.312 269.661,709.981 "/>
    </g>
    <g>
      <line style="fill: none; stroke-opacity: 1; stroke-width: 1.6; stroke: #000000" x1="276.994" y1="563.701" x2="246.391" y2="620.787"/>
      <polygon style="fill: #000000; fill-opacity: 1; stroke-opacity: 1; stroke-width: 1.6; stroke: #000000" fill-rule="evenodd" points="243.556,626.075 243.81,617.134 246.391,620.787 250.861,620.914 "/>
    </g>
    <g>
      <line style="fill: none; stroke-opacity: 1; stroke-width: 1.6; stroke: #000000" x1="320.236" y1="626.094" x2="257.706" y2="636.603"/>
      <polygon style="fill: #000000; fill-opacity: 1; stroke-opacity: 1; stroke-width: 1.6; stroke: #000000" fill-rule="evenodd" points="251.789,637.598 259.016,632.327 257.706,636.603 260.342,640.216 "/>
    </g>
    <g>
      <line style="fill: none; stroke-opacity: 1; stroke-width: 1.6; stroke: #000000" x1="325.78" y1="637.695" x2="261.749" y2="694.793"/>
      <polygon style="fill: #000000; fill-opacity: 1; stroke-opacity: 1; stroke-width: 1.6; stroke: #000000" fill-rule="evenodd" points="257.271,698.786 260.58,690.476 261.749,694.793 265.904,696.447 "/>
    </g>
    <g>
      <path style="fill: none; stroke-opacity: 1; stroke-width: 2; stroke: #000000" d="M 365.324 622.25 C 410.644,603.338 383.774,681.828 363.631,646.428"/>
      <polygon style="fill: #000000; fill-opacity: 1; stroke-opacity: 1; stroke-width: 2; stroke: #000000" fill-rule="evenodd" points="359.922,639.909 369.213,646.128 363.631,646.428 360.522,651.074 "/>
    </g>
    <ellipse style="fill: #ffc0cb; fill-opacity: 1; stroke-opacity: 1; stroke-width: 2; stroke: #ffc0cb" cx="1212.52" cy="-121.174" rx="45.375" ry="45.375"/>
    <text font-size="20.32" style="fill: #000000; fill-opacity: 1; stroke: none;text-anchor:middle;font-family:sans-serif;font-style:normal;font-weight:normal" x="1212.52" y="-114.124">
      <tspan x="1212.52" y="-114.124">top</tspan>
    </text>
    <ellipse style="fill: #ffc0cb; fill-opacity: 1; stroke-opacity: 1; stroke-width: 2; stroke: #ffc0cb" cx="1142.8" cy="-250.009" rx="45.375" ry="45.375"/>
    <text font-size="20.32" style="fill: #000000; fill-opacity: 1; stroke: none;text-anchor:middle;font-family:sans-serif;font-style:normal;font-weight:normal" x="1142.8" y="-242.958">
      <tspan x="1142.8" y="-242.958">bottom</tspan>
    </text>
    <ellipse style="fill: #ffc0cb; fill-opacity: 1; stroke-opacity: 1; stroke-width: 2; stroke: #ffc0cb" cx="1376.17" cy="-102.605" rx="22.225" ry="22.225"/>
    <text font-size="9.03111" style="fill: #000000; fill-opacity: 1; stroke: none;text-anchor:middle;font-family:sans-serif;font-style:normal;font-weight:normal" x="1376.17" y="-99.4796">
      <tspan x="1376.17" y="-99.4796">widget</tspan>
    </text>
    <g>
      <line style="fill: none; stroke-opacity: 1; stroke-width: 2; stroke: #000000" x1="1375.26" y1="7.31267" x2="1375.9" y2="-69.647"/>
      <polygon style="fill: #000000; fill-opacity: 1; stroke-opacity: 1; stroke-width: 2; stroke: #000000" fill-rule="evenodd" points="1375.96,-77.1468 1380.88,-67.106 1375.9,-69.647 1370.88,-67.1882 "/>
    </g>
    <g>
      <line style="fill: none; stroke-opacity: 1; stroke-width: 2; stroke: #000000" x1="1007.28" y1="-116.357" x2="1102.85" y2="-210.609"/>
      <polygon style="fill: #000000; fill-opacity: 1; stroke-opacity: 1; stroke-width: 2; stroke: #000000" fill-rule="evenodd" points="1108.19,-215.876 1104.58,-205.294 1102.85,-210.609 1097.56,-212.414 "/>
    </g>
    <g>
      <line style="fill: none; stroke-opacity: 1; stroke-width: 2; stroke: #000000" x1="1023.88" y1="-84.8133" x2="1157.42" y2="-110.552"/>
      <polygon style="fill: #000000; fill-opacity: 1; stroke-opacity: 1; stroke-width: 2; stroke: #000000" fill-rule="evenodd" points="1164.78,-111.972 1155.91,-105.17 1157.42,-110.552 1154.01,-114.989 "/>
    </g>
    <g>
      <line style="fill: none; stroke-opacity: 1; stroke-width: 2; stroke: #000000" x1="1182" y1="-225.245" x2="1348.3" y2="-120.206"/>
      <polygon style="fill: #000000; fill-opacity: 1; stroke-opacity: 1; stroke-width: 2; stroke: #000000" fill-rule="evenodd" points="1354.64,-116.201 1343.52,-117.314 1348.3,-120.206 1348.86,-125.768 "/>
    </g>
    <g>
      <line style="fill: none; stroke-opacity: 1; stroke-width: 2; stroke: #000000" x1="1258.59" y1="-115.946" x2="1343.44" y2="-106.318"/>
      <polygon style="fill: #000000; fill-opacity: 1; stroke-opacity: 1; stroke-width: 2; stroke: #000000" fill-rule="evenodd" points="1350.89,-105.473 1340.39,-101.632 1343.44,-106.318 1341.52,-111.568 "/>
    </g>
    <g>
      <line style="fill: none; stroke-opacity: 1; stroke-width: 2; stroke: #000000" x1="1229.76" y1="6.9106" x2="1349.77" y2="-82.8592"/>
      <polygon style="fill: #000000; fill-opacity: 1; stroke-opacity: 1; stroke-width: 2; stroke: #000000" fill-rule="evenodd" points="1355.78,-87.3517 1350.76,-77.358 1349.77,-82.8592 1344.77,-85.3655 "/>
    </g>
    <g>
      <path style="fill: none; stroke-opacity: 1; stroke-width: 2; stroke: #000000" d="M 1396.66 60.5406 C 1436.23,71.1652 1378.73,116.165 1375.78,79.2156"/>
      <polygon style="fill: #000000; fill-opacity: 1; stroke-opacity: 1; stroke-width: 2; stroke: #000000" fill-rule="evenodd" points="1375.18,71.7394 1380.96,81.3101 1375.78,79.2156 1370.99,82.1053 "/>
    </g>
    <g>
      <line style="fill: none; stroke-opacity: 1; stroke-width: 2; stroke: #000000" x1="913.104" y1="149.63" x2="1135.75" y2="163.23"/>
      <polygon style="fill: #000000; fill-opacity: 1; stroke-opacity: 1; stroke-width: 2; stroke: #000000" fill-rule="evenodd" points="1143.23,163.687 1132.95,168.068 1135.75,163.23 1133.56,158.087 "/>
    </g>
    <g>
      <line style="fill: none; stroke-opacity: 1; stroke-width: 2; stroke: #000000" x1="910.027" y1="126.28" x2="1002.32" y2="95.2434"/>
      <polygon style="fill: #000000; fill-opacity: 1; stroke-opacity: 1; stroke-width: 2; stroke: #000000" fill-rule="evenodd" points="1009.43,92.8529 1001.55,100.779 1002.32,95.2434 998.361,91.3011 "/>
    </g>
  </g>
</svg>
