<?xml version="1.0" encoding="UTF-8" standalone="no"?>
<!DOCTYPE svg PUBLIC "-//W3C//DTD SVG 1.0//EN" "http://www.w3.org/TR/2001/PR-SVG-20010719/DTD/svg10.dtd">
<svg width="81cm" height="54cm" viewBox="-196 -297 1608 1061" xmlns="http://www.w3.org/2000/svg" xmlns:xlink="http://www.w3.org/1999/xlink">
  <defs/>
  <g id="Arrière-plan">
    <g>
      <line style="fill: none; stroke-opacity: 1; stroke-width: 2; stroke: #000000" x1="669.449" y1="-66.8594" x2="892.292" y2="-71.6446"/>
      <polygon style="fill: #000000; fill-opacity: 1; stroke-opacity: 1; stroke-width: 2; stroke: #000000" fill-rule="evenodd" points="899.79,-71.8056 889.9,-66.5921 892.292,-71.6446 889.685,-76.5898 "/>
    </g>
    <ellipse style="fill: #c3d927; fill-opacity: 1; stroke-opacity: 1; stroke-width: 2; stroke: #c3d927" cx="377.71" cy="130.75" rx="60.5" ry="60.5"/>
    <g>
      <line style="fill: none; stroke-opacity: 1; stroke-width: 2; stroke: #000000" x1="561.434" y1="-13.9651" x2="433.662" y2="86.6785"/>
      <polygon style="fill: #000000; fill-opacity: 1; stroke-opacity: 1; stroke-width: 2; stroke: #000000" fill-rule="evenodd" points="427.77,91.3193 432.532,81.2037 433.662,86.6785 438.719,89.0594 "/>
    </g>
    <text font-size="27.0933" style="fill: #000000; fill-opacity: 1; stroke: none;text-anchor:middle;font-family:sans-serif;font-style:normal;font-weight:normal" x="377.71" y="140.125">
      <tspan x="377.71" y="140.125">ecosystem</tspan>
    </text>
    <ellipse style="fill: #000000; fill-opacity: 1; stroke-opacity: 1; stroke-width: 4; stroke: #000000" cx="627.442" cy="-65.9574" rx="82.0196" ry="82.0196"/>
    <g>
      <rect style="fill: #000000; fill-opacity: 1; stroke: none" x="556.792" y="-87.0074" width="141.3" height="42.1"/>
      <text font-size="36.1244" style="fill: #ffffff; fill-opacity: 1; stroke: none;text-anchor:middle;font-family:sans-serif;font-style:normal;font-weight:normal" x="627.442" y="-53.4574">
        <tspan x="627.442" y="-53.4574">3worlds</tspan>
      </text>
    </g>
    <g>
      <line style="fill: none; stroke-opacity: 1; stroke-width: 2; stroke: #000000" x1="688.543" y1="-8.28169" x2="799.674" y2="96.6178"/>
      <polygon style="fill: #000000; fill-opacity: 1; stroke-opacity: 1; stroke-width: 2; stroke: #000000" fill-rule="evenodd" points="805.128,101.766 794.423,98.5377 799.674,96.6178 801.288,91.2657 "/>
    </g>
    <ellipse style="fill: #bfbfbf; fill-opacity: 1; stroke-opacity: 1; stroke-width: 2; stroke: #bfbfbf" cx="604.472" cy="239.7" rx="60.5" ry="60.5"/>
    <text font-size="27.0933" style="fill: #000000; fill-opacity: 1; stroke: none;text-anchor:middle;font-family:sans-serif;font-style:normal;font-weight:normal" x="604.472" y="232.142">
      <tspan x="604.472" y="232.142">data</tspan>
      <tspan x="604.472" y="266.008">Definition</tspan>
    </text>
    <g>
      <line style="fill: none; stroke-opacity: 1; stroke-width: 2; stroke: #000000" x1="621.147" y1="17.8073" x2="609.806" y2="168.726"/>
      <polygon style="fill: #000000; fill-opacity: 1; stroke-opacity: 1; stroke-width: 2; stroke: #000000" fill-rule="evenodd" points="609.244,176.204 605.007,165.858 609.806,168.726 614.979,166.607 "/>
    </g>
    <ellipse style="fill: #ffc0cb; fill-opacity: 1; stroke-opacity: 1; stroke-width: 2; stroke: #ffc0cb" cx="963.498" cy="-73.1736" rx="60.5" ry="60.5"/>
    <text font-size="27.0933" style="fill: #000000; fill-opacity: 1; stroke: none;text-anchor:middle;font-family:sans-serif;font-style:normal;font-weight:normal" x="963.498" y="-80.7319">
      <tspan x="963.498" y="-80.7319">user</tspan>
      <tspan x="963.498" y="-46.8653">Interface</tspan>
    </text>
    <g>
      <line style="fill: none; stroke-opacity: 1; stroke-width: 2; stroke: #000000" x1="131.45" y1="183.289" x2="44.0759" y2="170.231"/>
      <polygon style="fill: #000000; fill-opacity: 1; stroke-opacity: 1; stroke-width: 2; stroke: #000000" fill-rule="evenodd" points="36.6583,169.122 47.2875,165.655 44.0759,170.231 45.8094,175.545 "/>
    </g>
    <g>
      <line style="fill: none; stroke-opacity: 1; stroke-width: 2; stroke: #000000" x1="318.745" y1="148.205" x2="230.961" y2="174.191"/>
      <polygon style="fill: #000000; fill-opacity: 1; stroke-opacity: 1; stroke-width: 2; stroke: #000000" fill-rule="evenodd" points="223.77,176.32 231.939,168.687 230.961,174.191 234.777,178.276 "/>
    </g>
    <g>
      <line style="fill: none; stroke-opacity: 1; stroke-width: 2; stroke: #000000" x1="369.225" y1="191.659" x2="354.621" y2="296.491"/>
      <polygon style="fill: #000000; fill-opacity: 1; stroke-opacity: 1; stroke-width: 2; stroke: #000000" fill-rule="evenodd" points="353.587,303.92 350.014,293.325 354.621,296.491 359.918,294.705 "/>
    </g>
    <ellipse style="fill: #a9b932; fill-opacity: 1; stroke-opacity: 1; stroke-width: 2; stroke: #a9b932" cx="3.17421" cy="164.118" rx="30.625" ry="30.625"/>
    <text font-size="13.5467" style="fill: #000000; fill-opacity: 1; stroke: none;text-anchor:middle;font-family:sans-serif;font-style:normal;font-weight:normal" x="3.17416" y="160.351">
      <tspan x="3.17416" y="160.351">category</tspan>
      <tspan x="3.17416" y="177.284">Set</tspan>
    </text>
    <ellipse style="fill: #bfbfbf; fill-opacity: 1; stroke-opacity: 1; stroke-width: 2; stroke: #bfbfbf" cx="529.407" cy="418.425" rx="45.375" ry="45.375"/>
    <text font-size="20.32" style="fill: #000000; fill-opacity: 1; stroke: none;text-anchor:middle;font-family:sans-serif;font-style:normal;font-weight:normal" x="529.406" y="425.474">
      <tspan x="529.406" y="425.474">dimensioner</tspan>
    </text>
    <ellipse style="fill: #bfbfbf; fill-opacity: 1; stroke-opacity: 1; stroke-width: 2; stroke: #bfbfbf" cx="725.485" cy="418.015" rx="45.375" ry="45.375"/>
    <text font-size="20.32" style="fill: #000000; fill-opacity: 1; stroke: none;text-anchor:middle;font-family:sans-serif;font-style:normal;font-weight:normal" x="725.486" y="425.066">
      <tspan x="725.486" y="425.066">record</tspan>
    </text>
    <g>
      <line style="fill: none; stroke-opacity: 1; stroke-width: 2; stroke: #000000" x1="580.661" y1="296.392" x2="551.1" y2="366.774"/>
      <polygon style="fill: #000000; fill-opacity: 1; stroke-opacity: 1; stroke-width: 2; stroke: #000000" fill-rule="evenodd" points="548.196,373.689 547.459,362.533 551.1,366.774 556.678,366.406 "/>
    </g>
    <g>
      <line style="fill: none; stroke-opacity: 1; stroke-width: 2; stroke: #000000" x1="638.994" y1="290.569" x2="693.982" y2="371.595"/>
      <polygon style="fill: #000000; fill-opacity: 1; stroke-opacity: 1; stroke-width: 2; stroke: #000000" fill-rule="evenodd" points="698.194,377.8 688.441,372.334 693.982,371.595 696.715,366.718 "/>
    </g>
    <ellipse style="fill: #bfbfbf; fill-opacity: 1; stroke-opacity: 1; stroke-width: 2; stroke: #bfbfbf" cx="761.941" cy="527.919" rx="30.625" ry="30.625"/>
    <text font-size="13.5467" style="fill: #000000; fill-opacity: 1; stroke: none;text-anchor:middle;font-family:sans-serif;font-style:normal;font-weight:normal" x="761.94" y="532.62">
      <tspan x="761.94" y="532.62">table</tspan>
    </text>
    <ellipse style="fill: #bfbfbf; fill-opacity: 1; stroke-opacity: 1; stroke-width: 2; stroke: #bfbfbf" cx="849.285" cy="461.089" rx="30.625" ry="30.625"/>
    <text font-size="13.5467" style="fill: #000000; fill-opacity: 1; stroke: none;text-anchor:middle;font-family:sans-serif;font-style:normal;font-weight:normal" x="849.286" y="465.79">
      <tspan x="849.286" y="465.79">field</tspan>
    </text>
    <g>
      <line style="fill: none; stroke-opacity: 1; stroke-width: 2; stroke: #000000" x1="769.288" y1="433.255" x2="810.22" y2="447.497"/>
      <polygon style="fill: #000000; fill-opacity: 1; stroke-opacity: 1; stroke-width: 2; stroke: #000000" fill-rule="evenodd" points="817.304,449.962 806.216,451.398 810.22,447.497 809.502,441.953 "/>
    </g>
    <g>
      <path style="fill: none; stroke-opacity: 1; stroke-width: 2; stroke: #000000" d="M 734.464 512.273 C 719.728,503.881 718.364,486.459 719.679,473.827"/>
      <polygon style="fill: #000000; fill-opacity: 1; stroke-opacity: 1; stroke-width: 2; stroke: #000000" fill-rule="evenodd" points="720.455,466.367 724.393,476.831 719.679,473.827 714.447,475.796 "/>
    </g>
    <g>
      <path style="fill: none; stroke-opacity: 1; stroke-width: 2; stroke: #000000" d="M 755.113 453.695 C 771.883,473.891 765.676,474.552 764.828,486.665"/>
      <polygon style="fill: #000000; fill-opacity: 1; stroke-opacity: 1; stroke-width: 2; stroke: #000000" fill-rule="evenodd" points="764.304,494.147 760.015,483.822 764.828,486.665 769.991,484.521 "/>
    </g>
    <g>
      <path style="fill: none; stroke-opacity: 1; stroke-width: 2; stroke: #000000" d="M -28.3549 161.759 C -57.6337,159.569 -66.1855,168.654 -76.5607,186.768"/>
      <polygon style="fill: #000000; fill-opacity: 1; stroke-opacity: 1; stroke-width: 2; stroke: #000000" fill-rule="evenodd" points="-80.2883,193.276 -79.6568,182.113 -76.5607,186.768 -70.9794,187.083 "/>
    </g>
    <g>
      <path style="fill: none; stroke-opacity: 1; stroke-width: 2; stroke: #000000" d="M -70.7164 222.077 C -46.3098,229.455 -30.5813,219.305 -18.4035,199.395"/>
      <polygon style="fill: #000000; fill-opacity: 1; stroke-opacity: 1; stroke-width: 2; stroke: #000000" fill-rule="evenodd" points="-14.4901,192.997 -15.4426,204.137 -18.4035,199.395 -23.9733,198.919 "/>
    </g>
    <ellipse style="fill: #ffc0cb; fill-opacity: 1; stroke-opacity: 1; stroke-width: 2; stroke: #ffc0cb" cx="1192.64" cy="34.679" rx="45.375" ry="45.375"/>
    <text font-size="20.32" style="fill: #000000; fill-opacity: 1; stroke: none;text-anchor:middle;font-family:sans-serif;font-style:normal;font-weight:normal" x="1192.64" y="41.729">
      <tspan x="1192.64" y="41.729">tab</tspan>
    </text>
    <g>
      <line style="fill: none; stroke-opacity: 1; stroke-width: 2; stroke: #000000" x1="1019.14" y1="-46.9839" x2="1141.87" y2="10.7811"/>
      <polygon style="fill: #000000; fill-opacity: 1; stroke-opacity: 1; stroke-width: 2; stroke: #000000" fill-rule="evenodd" points="1148.65,13.9751 1137.48,14.2404 1141.87,10.7811 1141.73,5.19249 "/>
    </g>
    <ellipse style="fill: #ffc0cb; fill-opacity: 1; stroke-opacity: 1; stroke-width: 2; stroke: #ffc0cb" cx="1375" cy="38.8854" rx="30.625" ry="30.625"/>
    <text font-size="13.5467" style="fill: #000000; fill-opacity: 1; stroke: none;text-anchor:middle;font-family:sans-serif;font-style:normal;font-weight:normal" x="1375" y="43.5854">
      <tspan x="1375" y="43.5854">container</tspan>
    </text>
    <g>
      <line style="fill: none; stroke-opacity: 1; stroke-width: 2; stroke: #000000" x1="1239" y1="35.7483" x2="1333.65" y2="37.9315"/>
      <polygon style="fill: #000000; fill-opacity: 1; stroke-opacity: 1; stroke-width: 2; stroke: #000000" fill-rule="evenodd" points="1341.15,38.1044 1331.03,42.8725 1333.65,37.9315 1331.26,32.8752 "/>
    </g>
    <ellipse style="fill: #a9b932; fill-opacity: 1; stroke-opacity: 1; stroke-width: 2; stroke: #a9b932" cx="177.154" cy="190.119" rx="45.375" ry="45.375"/>
    <text font-size="20.32" style="fill: #000000; fill-opacity: 1; stroke: none;text-anchor:middle;font-family:sans-serif;font-style:normal;font-weight:normal" x="177.154" y="197.169">
      <tspan x="177.154" y="197.169">structure</tspan>
    </text>
    <ellipse style="fill: #dcf050; fill-opacity: 1; stroke-opacity: 1; stroke-width: 2; stroke: #dcf050" cx="346.879" cy="352.069" rx="45.375" ry="45.375"/>
    <text font-size="20.32" style="fill: #000000; fill-opacity: 1; stroke: none;text-anchor:middle;font-family:sans-serif;font-style:normal;font-weight:normal" x="346.88" y="359.118">
      <tspan x="346.88" y="359.118">dynamics</tspan>
    </text>
    <ellipse style="fill: #a9b932; fill-opacity: 1; stroke-opacity: 1; stroke-width: 2; stroke: #a9b932" cx="-92.9376" cy="215.36" rx="22.225" ry="22.225"/>
    <text font-size="9.03111" style="fill: #000000; fill-opacity: 1; stroke: none;text-anchor:middle;font-family:sans-serif;font-style:normal;font-weight:normal" x="-92.9386" y="218.485">
      <tspan x="-92.9386" y="218.485">category</tspan>
    </text>
    <ellipse style="fill: #a9b932; fill-opacity: 1; stroke-opacity: 1; stroke-width: 2; stroke: #a9b932" cx="42.1474" cy="286.955" rx="30.625" ry="30.625"/>
    <text font-size="13.5467" style="fill: #000000; fill-opacity: 1; stroke: none;text-anchor:middle;font-family:sans-serif;font-style:normal;font-weight:normal" x="42.1474" y="291.656">
      <tspan x="42.1474" y="291.656">component</tspan>
    </text>
    <g>
      <line style="fill: none; stroke-opacity: 1; stroke-width: 2; stroke: #000000" x1="139.472" y1="217.148" x2="75.7021" y2="262.887"/>
      <polygon style="fill: #000000; fill-opacity: 1; stroke-opacity: 1; stroke-width: 2; stroke: #000000" fill-rule="evenodd" points="69.6077,267.259 74.8194,257.367 75.7021,262.887 80.6478,265.493 "/>
    </g>
    <g>
      <line style="fill: none; stroke-opacity: 1; stroke-width: 2; stroke: #000000" x1="141.436" y1="160.56" x2="61.0134" y2="94.0042"/>
      <polygon style="fill: #000000; fill-opacity: 1; stroke-opacity: 1; stroke-width: 2; stroke: #000000" fill-rule="evenodd" points="55.2355,89.2225 66.1273,91.7462 61.0134,94.0042 59.7516,99.4501 "/>
    </g>
    <ellipse style="fill: #a9b932; fill-opacity: 1; stroke-opacity: 1; stroke-width: 2; stroke: #a9b932" cx="29.1495" cy="67.6344" rx="30.625" ry="30.625"/>
    <text font-size="13.5467" style="fill: #000000; fill-opacity: 1; stroke: none;text-anchor:middle;font-family:sans-serif;font-style:normal;font-weight:normal" x="29.1494" y="63.8677">
      <tspan x="29.1494" y="63.8677">relation</tspan>
      <tspan x="29.1494" y="80.8011">Type</tspan>
    </text>
    <ellipse style="fill: #dcf050; fill-opacity: 1; stroke-opacity: 1; stroke-width: 2; stroke: #dcf050" cx="145.315" cy="412.685" rx="30.625" ry="30.625"/>
    <text font-size="13.5467" style="fill: #000000; fill-opacity: 1; stroke: none;text-anchor:middle;font-family:sans-serif;font-style:normal;font-weight:normal" x="145.315" y="417.384">
      <tspan x="145.315" y="417.384">timeLine</tspan>
    </text>
    <g>
      <line style="fill: none; stroke-opacity: 1; stroke-width: 2; stroke: #000000" x1="302.479" y1="365.421" x2="184.915" y2="400.776"/>
      <polygon style="fill: #000000; fill-opacity: 1; stroke-opacity: 1; stroke-width: 2; stroke: #000000" fill-rule="evenodd" points="177.733,402.936 185.87,395.268 184.915,400.776 188.749,404.844 "/>
    </g>
    <ellipse style="fill: #dcf050; fill-opacity: 1; stroke-opacity: 1; stroke-width: 2; stroke: #dcf050" cx="45.6986" cy="448.303" rx="22.225" ry="22.225"/>
    <text font-size="9.03111" style="fill: #000000; fill-opacity: 1; stroke: none;text-anchor:middle;font-family:sans-serif;font-style:normal;font-weight:normal" x="45.6986" y="445.783">
      <tspan x="45.6986" y="445.783">time</tspan>
      <tspan x="45.6986" y="457.071">Model</tspan>
    </text>
    <g>
      <line style="fill: none; stroke-opacity: 1; stroke-width: 1.6; stroke: #000000" x1="115.535" y1="423.333" x2="74.903" y2="437.861"/>
      <polygon style="fill: #000000; fill-opacity: 1; stroke-opacity: 1; stroke-width: 1.6; stroke: #000000" fill-rule="evenodd" points="69.2532,439.881 75.4395,433.421 74.903,437.861 78.1329,440.954 "/>
    </g>
    <g>
      <line style="fill: none; stroke-opacity: 1; stroke-width: 1.6; stroke: #000000" x1="26.2644" y1="460.986" x2="-8.9593" y2="483.972"/>
      <polygon style="fill: #000000; fill-opacity: 1; stroke-opacity: 1; stroke-width: 1.6; stroke: #000000" fill-rule="evenodd" points="-13.984,487.251 -9.47045,479.529 -8.9593,483.972 -5.09834,486.229 "/>
    </g>
    <ellipse style="fill: #dcf050; fill-opacity: 1; stroke-opacity: 1; stroke-width: 2; stroke: #dcf050" cx="-30.4762" cy="498.014" rx="16.9" ry="16.9"/>
    <text font-size="7.90222" style="fill: #000000; fill-opacity: 1; stroke: none;text-anchor:middle;font-family:sans-serif;font-style:normal;font-weight:normal" x="-30.4762" y="500.739">
      <tspan x="-30.4762" y="500.739">process</tspan>
    </text>
    <ellipse style="fill: #dcf050; fill-opacity: 1; stroke-opacity: 1; stroke-width: 2; stroke: #dcf050" cx="-78.4204" cy="546.216" rx="13.3116" ry="13.3116"/>
    <text font-size="7.33778" style="fill: #000000; fill-opacity: 1; stroke: none;text-anchor:middle;font-family:sans-serif;font-style:normal;font-weight:normal" x="-78.4204" y="548.764">
      <tspan x="-78.4204" y="548.764">function</tspan>
    </text>
    <g>
      <line style="fill: none; stroke-opacity: 1; stroke-width: 1.6; stroke: #000000" x1="-43.1002" y1="510.706" x2="-62.8319" y2="530.543"/>
      <polygon style="fill: #000000; fill-opacity: 1; stroke-opacity: 1; stroke-width: 1.6; stroke: #000000" fill-rule="evenodd" points="-67.0632,534.797 -64.2575,526.305 -62.8319,530.543 -58.5855,531.946 "/>
    </g>
    <ellipse style="fill: #dcf050; fill-opacity: 1; stroke-opacity: 1; stroke-width: 2; stroke: #dcf050" cx="203.054" cy="497.007" rx="30.625" ry="30.625"/>
    <text font-size="13.5467" style="fill: #000000; fill-opacity: 1; stroke: none;text-anchor:middle;font-family:sans-serif;font-style:normal;font-weight:normal" x="203.054" y="501.708">
      <tspan x="203.054" y="501.708">lifeCycle</tspan>
    </text>
    <ellipse style="fill: #dcf050; fill-opacity: 1; stroke-opacity: 1; stroke-width: 2; stroke: #dcf050" cx="92.1234" cy="515.655" rx="22.225" ry="22.225"/>
    <text font-size="9.03111" style="fill: #000000; fill-opacity: 1; stroke: none;text-anchor:middle;font-family:sans-serif;font-style:normal;font-weight:normal" x="92.1234" y="518.779">
      <tspan x="92.1234" y="518.779">recruit</tspan>
    </text>
    <g>
      <line style="fill: none; stroke-opacity: 1; stroke-width: 1.6; stroke: #000000" x1="173.588" y1="501.96" x2="122.689" y2="510.517"/>
      <polygon style="fill: #000000; fill-opacity: 1; stroke-opacity: 1; stroke-width: 1.6; stroke: #000000" fill-rule="evenodd" points="116.772,511.511 123.999,506.24 122.689,510.517 125.325,514.13 "/>
    </g>
    <ellipse style="fill: #dcf050; fill-opacity: 1; stroke-opacity: 1; stroke-width: 2; stroke: #dcf050" cx="168.491" cy="598.209" rx="22.225" ry="22.225"/>
    <text font-size="9.03111" style="fill: #000000; fill-opacity: 1; stroke: none;text-anchor:middle;font-family:sans-serif;font-style:normal;font-weight:normal" x="168.491" y="601.333">
      <tspan x="168.491" y="601.333">produce</tspan>
    </text>
    <g>
      <line style="fill: none; stroke-opacity: 1; stroke-width: 1.6; stroke: #000000" x1="192.844" y1="526.903" x2="178.51" y2="568.873"/>
      <polygon style="fill: #000000; fill-opacity: 1; stroke-opacity: 1; stroke-width: 1.6; stroke: #000000" fill-rule="evenodd" points="176.571,574.551 175.371,565.688 178.51,568.873 182.942,568.273 "/>
    </g>
    <g>
      <line style="fill: none; stroke-opacity: 1; stroke-width: 2; stroke: #000000" x1="314.215" y1="384.986" x2="232.183" y2="467.653"/>
      <polygon style="fill: #000000; fill-opacity: 1; stroke-opacity: 1; stroke-width: 2; stroke: #000000" fill-rule="evenodd" points="226.9,472.977 230.394,462.357 232.183,467.653 237.493,469.4 "/>
    </g>
    <ellipse style="fill: #dcf050; fill-opacity: 1; stroke-opacity: 1; stroke-width: 2; stroke: #dcf050" cx="410.943" cy="499.835" rx="30.625" ry="30.625"/>
    <text font-size="13.5467" style="fill: #000000; fill-opacity: 1; stroke: none;text-anchor:middle;font-family:sans-serif;font-style:normal;font-weight:normal" x="410.944" y="504.536">
      <tspan x="410.944" y="504.536">initialiser</tspan>
    </text>
    <g>
      <line style="fill: none; stroke-opacity: 1; stroke-width: 2; stroke: #000000" x1="301.471" y1="342.684" x2="202.544" y2="322.238"/>
      <polygon style="fill: #000000; fill-opacity: 1; stroke-opacity: 1; stroke-width: 2; stroke: #000000" fill-rule="evenodd" points="195.199,320.72 206.005,317.848 202.544,322.238 203.981,327.641 "/>
    </g>
    <g>
      <line style="fill: none; stroke-opacity: 1; stroke-width: 2; stroke: #000000" x1="365.323" y1="394.611" x2="394.491" y2="461.888"/>
      <polygon style="fill: #000000; fill-opacity: 1; stroke-opacity: 1; stroke-width: 2; stroke: #000000" fill-rule="evenodd" points="397.475,468.77 388.909,461.584 394.491,461.888 398.084,457.606 "/>
    </g>
    <ellipse style="fill: #dcf050; fill-opacity: 1; stroke-opacity: 1; stroke-width: 2; stroke: #dcf050" cx="162.042" cy="313.867" rx="30.625" ry="30.625"/>
    <text font-size="13.5467" style="fill: #000000; fill-opacity: 1; stroke: none;text-anchor:middle;font-family:sans-serif;font-style:normal;font-weight:normal" x="162.042" y="310.099">
      <tspan x="162.042" y="310.099">stopping</tspan>
      <tspan x="162.042" y="327.033">Condition</tspan>
    </text>
    <ellipse style="fill: #dcf050; fill-opacity: 1; stroke-opacity: 1; stroke-width: 2; stroke: #dcf050" cx="291.937" cy="535.827" rx="30.625" ry="30.625"/>
    <text font-size="13.5467" style="fill: #000000; fill-opacity: 1; stroke: none;text-anchor:middle;font-family:sans-serif;font-style:normal;font-weight:normal" x="291.938" y="532.061">
      <tspan x="291.938" y="532.061">initial</tspan>
      <tspan x="291.938" y="548.995">State</tspan>
    </text>
    <g>
      <line style="fill: none; stroke-opacity: 1; stroke-width: 2; stroke: #000000" x1="333.596" y1="396.494" x2="303.784" y2="496.205"/>
      <polygon style="fill: #000000; fill-opacity: 1; stroke-opacity: 1; stroke-width: 2; stroke: #000000" fill-rule="evenodd" points="301.635,503.391 299.709,492.378 303.784,496.205 309.29,495.242 "/>
    </g>
    <ellipse style="fill: #dcf050; fill-opacity: 1; stroke-opacity: 1; stroke-width: 2; stroke: #dcf050" cx="343.099" cy="622.251" rx="22.225" ry="22.225"/>
    <text font-size="9.03111" style="fill: #000000; fill-opacity: 1; stroke: none;text-anchor:middle;font-family:sans-serif;font-style:normal;font-weight:normal" x="343.1" y="625.375">
      <tspan x="343.1" y="625.375">group</tspan>
    </text>
    <g>
      <line style="fill: none; stroke-opacity: 1; stroke-width: 1.6; stroke: #000000" x1="333.728" y1="643.464" x2="319.009" y2="676.784"/>
      <polygon style="fill: #000000; fill-opacity: 1; stroke-opacity: 1; stroke-width: 1.6; stroke: #000000" fill-rule="evenodd" points="316.584,682.272 316.158,673.338 319.009,676.784 323.476,676.57 "/>
    </g>
    <ellipse style="fill: #dcf050; fill-opacity: 1; stroke-opacity: 1; stroke-width: 2; stroke: #dcf050" cx="308.644" cy="700.246" rx="16.9" ry="16.9"/>
    <text font-size="7.90222" style="fill: #000000; fill-opacity: 1; stroke: none;text-anchor:middle;font-family:sans-serif;font-style:normal;font-weight:normal" x="308.644" y="702.971">
      <tspan x="308.644" y="702.971">individual</tspan>
    </text>
    <ellipse style="fill: #dcf050; fill-opacity: 1; stroke-opacity: 1; stroke-width: 2; stroke: #dcf050" cx="235.952" cy="640.26" rx="13.3116" ry="13.3116"/>
    <text font-size="7.33778" style="fill: #000000; fill-opacity: 1; stroke: none;text-anchor:middle;font-family:sans-serif;font-style:normal;font-weight:normal" x="235.952" y="638.224">
      <tspan x="235.952" y="638.224">parameter</tspan>
      <tspan x="235.952" y="647.396">Values</tspan>
    </text>
    <g>
      <line style="fill: none; stroke-opacity: 1; stroke-width: 1.6; stroke: #000000" x1="294.854" y1="688.867" x2="252.98" y2="654.312"/>
      <polygon style="fill: #000000; fill-opacity: 1; stroke-opacity: 1; stroke-width: 1.6; stroke: #000000" fill-rule="evenodd" points="248.352,650.493 257.069,652.499 252.98,654.312 251.977,658.67 "/>
    </g>
    <ellipse style="fill: #dcf050; fill-opacity: 1; stroke-opacity: 1; stroke-width: 2; stroke: #dcf050" cx="245.252" cy="709.504" rx="13.3116" ry="13.3116"/>
    <text font-size="7.33778" style="fill: #000000; fill-opacity: 1; stroke: none;text-anchor:middle;font-family:sans-serif;font-style:normal;font-weight:normal" x="245.252" y="707.468">
      <tspan x="245.252" y="707.468">variable</tspan>
      <tspan x="245.252" y="716.64">Values</tspan>
    </text>
    <g>
      <line style="fill: none; stroke-opacity: 1; stroke-width: 1.6; stroke: #000000" x1="308.038" y1="563.024" x2="327.315" y2="595.588"/>
      <polygon style="fill: #000000; fill-opacity: 1; stroke-opacity: 1; stroke-width: 1.6; stroke: #000000" fill-rule="evenodd" points="330.372,600.751 322.854,595.905 327.315,595.588 329.738,591.83 "/>
    </g>
    <g>
      <line style="fill: none; stroke-opacity: 1; stroke-width: 1.6; stroke: #000000" x1="295.102" y1="566.977" x2="306.054" y2="674.755"/>
      <polygon style="fill: #000000; fill-opacity: 1; stroke-opacity: 1; stroke-width: 1.6; stroke: #000000" fill-rule="evenodd" points="306.66,680.724 301.872,673.169 306.054,674.755 309.831,672.36 "/>
    </g>
    <g>
      <line style="fill: none; stroke-opacity: 1; stroke-width: 1.6; stroke: #000000" x1="290.931" y1="702.833" x2="267.104" y2="706.312"/>
      <polygon style="fill: #000000; fill-opacity: 1; stroke-opacity: 1; stroke-width: 1.6; stroke: #000000" fill-rule="evenodd" points="261.167,707.179 268.505,702.065 267.104,706.312 269.661,709.981 "/>
    </g>
    <g>
      <line style="fill: none; stroke-opacity: 1; stroke-width: 1.6; stroke: #000000" x1="276.994" y1="563.701" x2="246.391" y2="620.787"/>
      <polygon style="fill: #000000; fill-opacity: 1; stroke-opacity: 1; stroke-width: 1.6; stroke: #000000" fill-rule="evenodd" points="243.556,626.075 243.81,617.134 246.391,620.787 250.861,620.914 "/>
    </g>
    <g>
      <line style="fill: none; stroke-opacity: 1; stroke-width: 1.6; stroke: #000000" x1="320.236" y1="626.094" x2="257.706" y2="636.603"/>
      <polygon style="fill: #000000; fill-opacity: 1; stroke-opacity: 1; stroke-width: 1.6; stroke: #000000" fill-rule="evenodd" points="251.789,637.598 259.016,632.327 257.706,636.603 260.342,640.216 "/>
    </g>
    <g>
      <line style="fill: none; stroke-opacity: 1; stroke-width: 1.6; stroke: #000000" x1="325.78" y1="637.695" x2="261.749" y2="694.793"/>
      <polygon style="fill: #000000; fill-opacity: 1; stroke-opacity: 1; stroke-width: 1.6; stroke: #000000" fill-rule="evenodd" points="257.271,698.786 260.58,690.476 261.749,694.793 265.904,696.447 "/>
    </g>
    <g>
      <path style="fill: none; stroke-opacity: 1; stroke-width: 2; stroke: #000000" d="M 365.324 622.25 C 410.644,603.338 383.774,681.828 363.631,646.428"/>
      <polygon style="fill: #000000; fill-opacity: 1; stroke-opacity: 1; stroke-width: 2; stroke: #000000" fill-rule="evenodd" points="359.922,639.909 369.213,646.128 363.631,646.428 360.522,651.074 "/>
    </g>
    <ellipse style="fill: #ffc0cb; fill-opacity: 1; stroke-opacity: 1; stroke-width: 2; stroke: #ffc0cb" cx="1212.52" cy="-121.174" rx="45.375" ry="45.375"/>
    <text font-size="20.32" style="fill: #000000; fill-opacity: 1; stroke: none;text-anchor:middle;font-family:sans-serif;font-style:normal;font-weight:normal" x="1212.52" y="-114.124">
      <tspan x="1212.52" y="-114.124">top</tspan>
    </text>
    <ellipse style="fill: #ffc0cb; fill-opacity: 1; stroke-opacity: 1; stroke-width: 2; stroke: #ffc0cb" cx="1142.8" cy="-250.009" rx="45.375" ry="45.375"/>
    <text font-size="20.32" style="fill: #000000; fill-opacity: 1; stroke: none;text-anchor:middle;font-family:sans-serif;font-style:normal;font-weight:normal" x="1142.8" y="-242.958">
      <tspan x="1142.8" y="-242.958">bottom</tspan>
    </text>
    <ellipse style="fill: #ffc0cb; fill-opacity: 1; stroke-opacity: 1; stroke-width: 2; stroke: #ffc0cb" cx="1376.17" cy="-102.605" rx="22.225" ry="22.225"/>
    <text font-size="9.03111" style="fill: #000000; fill-opacity: 1; stroke: none;text-anchor:middle;font-family:sans-serif;font-style:normal;font-weight:normal" x="1376.17" y="-99.4796">
      <tspan x="1376.17" y="-99.4796">widget</tspan>
    </text>
    <g>
      <line style="fill: none; stroke-opacity: 1; stroke-width: 2; stroke: #000000" x1="1375.26" y1="7.31267" x2="1375.9" y2="-69.647"/>
      <polygon style="fill: #000000; fill-opacity: 1; stroke-opacity: 1; stroke-width: 2; stroke: #000000" fill-rule="evenodd" points="1375.96,-77.1468 1380.88,-67.106 1375.9,-69.647 1370.88,-67.1882 "/>
    </g>
    <g>
      <line style="fill: none; stroke-opacity: 1; stroke-width: 2; stroke: #000000" x1="1007.28" y1="-116.357" x2="1102.85" y2="-210.609"/>
      <polygon style="fill: #000000; fill-opacity: 1; stroke-opacity: 1; stroke-width: 2; stroke: #000000" fill-rule="evenodd" points="1108.19,-215.876 1104.58,-205.294 1102.85,-210.609 1097.56,-212.414 "/>
    </g>
    <g>
      <line style="fill: none; stroke-opacity: 1; stroke-width: 2; stroke: #000000" x1="1023.88" y1="-84.8133" x2="1157.42" y2="-110.552"/>
      <polygon style="fill: #000000; fill-opacity: 1; stroke-opacity: 1; stroke-width: 2; stroke: #000000" fill-rule="evenodd" points="1164.78,-111.972 1155.91,-105.17 1157.42,-110.552 1154.01,-114.989 "/>
    </g>
    <g>
      <line style="fill: none; stroke-opacity: 1; stroke-width: 2; stroke: #000000" x1="1182" y1="-225.245" x2="1348.3" y2="-120.206"/>
      <polygon style="fill: #000000; fill-opacity: 1; stroke-opacity: 1; stroke-width: 2; stroke: #000000" fill-rule="evenodd" points="1354.64,-116.201 1343.52,-117.314 1348.3,-120.206 1348.86,-125.768 "/>
    </g>
    <g>
      <line style="fill: none; stroke-opacity: 1; stroke-width: 2; stroke: #000000" x1="1258.59" y1="-115.946" x2="1343.44" y2="-106.318"/>
      <polygon style="fill: #000000; fill-opacity: 1; stroke-opacity: 1; stroke-width: 2; stroke: #000000" fill-rule="evenodd" points="1350.89,-105.473 1340.39,-101.632 1343.44,-106.318 1341.52,-111.568 "/>
    </g>
    <g>
      <line style="fill: none; stroke-opacity: 1; stroke-width: 2; stroke: #000000" x1="1229.76" y1="6.9106" x2="1349.77" y2="-82.8592"/>
      <polygon style="fill: #000000; fill-opacity: 1; stroke-opacity: 1; stroke-width: 2; stroke: #000000" fill-rule="evenodd" points="1355.78,-87.3517 1350.76,-77.358 1349.77,-82.8592 1344.77,-85.3655 "/>
    </g>
    <g>
      <path style="fill: none; stroke-opacity: 1; stroke-width: 2; stroke: #000000" d="M 1396.66 60.5406 C 1436.23,71.1652 1378.73,116.165 1375.78,79.2156"/>
      <polygon style="fill: #000000; fill-opacity: 1; stroke-opacity: 1; stroke-width: 2; stroke: #000000" fill-rule="evenodd" points="1375.18,71.7394 1380.96,81.3101 1375.78,79.2156 1370.99,82.1053 "/>
    </g>
    <g>
      <path style="fill: none; stroke-opacity: 1; stroke-width: 2; stroke-dasharray: 6; stroke: #000000" d="M 792.623 127.641 C 646.901,83.3885 466.089,153.078 373.002,308.465"/>
      <polyline style="fill: none; stroke-opacity: 1; stroke-width: 2; stroke: #000000" points="372.702,299.235 371.852,310.383 381.281,304.374 "/>
    </g>
    <g>
      <path style="fill: none; stroke-opacity: 1; stroke-width: 2; stroke-dasharray: 6; stroke: #000000" d="M 1004.54 242.262 C 846.245,284.768 798.987,333.81 397.651,350.018"/>
      <polyline style="fill: none; stroke-opacity: 1; stroke-width: 2; stroke: #000000" points="405.207,344.708 395.417,350.108 405.611,354.7 "/>
    </g>
    <g>
      <path style="fill: none; stroke-opacity: 1; stroke-width: 2; stroke-dasharray: 6; stroke: #000000" d="M 807.092 361.3 C 702.666,356.716 307.375,200.234 190.482,291.629"/>
      <polyline style="fill: none; stroke-opacity: 1; stroke-width: 2; stroke: #000000" points="193.519,282.908 188.721,293.007 199.678,290.786 "/>
    </g>
    <g>
      <path style="fill: none; stroke-opacity: 1; stroke-width: 2; stroke-dasharray: 6; stroke: #000000" d="M 10.6015 284.734 C -20.4293,282.548 -72.7162,269.771 -83.2887,241.323"/>
      <polyline style="fill: none; stroke-opacity: 1; stroke-width: 2; stroke: #000000" points="-75.8972,246.859 -84.0676,239.227 -85.2708,250.342 "/>
    </g>
    <g>
      <path style="fill: none; stroke-opacity: 1; stroke-width: 2; stroke-dasharray: 6; stroke: #000000" d="M -1.97986 72.6796 C -54.6609,81.2178 -99.0389,103.193 -94.4416,187.71"/>
      <polyline style="fill: none; stroke-opacity: 1; stroke-width: 2; stroke: #000000" points="-99.8559,180.229 -94.3202,189.943 -89.8707,179.686 "/>
    </g>
    <g>
      <path style="fill: none; stroke-opacity: 1; stroke-width: 2; stroke-dasharray: 6; stroke: #000000" d="M 173.672 485.306 C 82.8506,449.136 -34.5003,385.243 -2.88883,199.704"/>
      <polyline style="fill: none; stroke-opacity: 1; stroke-width: 2; stroke: #000000" points="0.736153,208.197 -2.51327,197.499 -9.12179,206.518 "/>
    </g>
    <g>
      <path style="fill: none; stroke-opacity: 1; stroke-width: 2; stroke-dasharray: 6; stroke: #000000" d="M -101.164 237.076 C -336.52,858.382 483.041,877.689 701.763,462.995"/>
      <polyline style="fill: none; stroke-opacity: 1; stroke-width: 2; stroke: #000000" points="702.563,472.195 702.806,461.017 693.718,467.53 "/>
    </g>
    <g>
      <path style="fill: none; stroke-opacity: 1; stroke-width: 2; stroke-dasharray: 6; stroke: #000000" d="M 68.9613 514.022 C 37.9305,511.836 -91.2218,422.893 -92.7087,243.051"/>
      <polyline style="fill: none; stroke-opacity: 1; stroke-width: 2; stroke: #000000" points="-87.6447,250.773 -92.7272,240.815 -97.6443,250.856 "/>
    </g>
    <g>
      <path style="fill: none; stroke-opacity: 1; stroke-width: 2; stroke-dasharray: 6; stroke: #000000" d="M 145.718 593.69 C -181.362,528.8 -283.134,279.061 -119.193,224.153"/>
      <polyline style="fill: none; stroke-opacity: 1; stroke-width: 2; stroke: #000000" points="-124.967,231.36 -117.072,223.443 -128.143,221.878 "/>
    </g>
    <g>
      <path style="fill: none; stroke-opacity: 1; stroke-width: 2; stroke-dasharray: 6; stroke: #000000" d="M 735.005 544.01 C 664.419,586.176 564.461,562.113 541.459,467.827"/>
      <polyline style="fill: none; stroke-opacity: 1; stroke-width: 2; stroke: #000000" points="548.156,474.185 540.929,465.655 538.441,476.555 "/>
    </g>
    <g>
      <path style="fill: none; stroke-opacity: 1; stroke-width: 2; stroke-dasharray: 6; stroke: #000000" d="M 1368.46 -80.6975 C 1083.49,729.703 655.678,736.161 378.74,391.697"/>
      <polyline style="fill: none; stroke-opacity: 1; stroke-width: 2; stroke: #000000" points="387.501,394.615 377.339,389.954 379.708,400.88 "/>
    </g>
    <g>
      <path style="fill: none; stroke-opacity: 1; stroke-width: 2; stroke-dasharray: 6; stroke: #000000" d="M -44.0251 486.32 C -109.01,430.23 -200.663,336.979 -111.302,236.093"/>
      <polyline style="fill: none; stroke-opacity: 1; stroke-width: 2; stroke: #000000" points="-112.707,245.22 -109.819,234.419 -120.193,238.59 "/>
    </g>
    <g>
      <path style="fill: none; stroke-opacity: 1; stroke-width: 2; stroke-dasharray: 6; stroke: #000000" d="M -39.6124 482.636 C -103.183,375.634 -271.334,71.0523 -6.94453,68.045"/>
      <polyline style="fill: none; stroke-opacity: 1; stroke-width: 2; stroke: #000000" points="-14.6511,73.1329 -4.7086,68.0195 -14.7648,63.1336 "/>
    </g>
    <g>
      <path style="fill: none; stroke-opacity: 1; stroke-width: 2; stroke-dasharray: 6; stroke: #000000" d="M -13.5763 498.014 C 40.3032,485.764 4.87708,556.474 -16.516,513.959"/>
      <polyline style="fill: none; stroke-opacity: 1; stroke-width: 2; stroke: #000000" points="-8.55978,518.647 -17.5211,511.961 -17.4926,523.142 "/>
    </g>
    <g>
      <path style="fill: none; stroke-opacity: 1; stroke-width: 2; stroke-dasharray: 6; stroke: #000000" d="M -70.0056 557.89 C -25.4578,559.304 -78.4908,610.922 -78.4265,563.998"/>
      <polyline style="fill: none; stroke-opacity: 1; stroke-width: 2; stroke: #000000" points="-73.4372,571.769 -78.4235,561.762 -83.4372,571.755 "/>
    </g>
    <g>
      <path style="fill: none; stroke-opacity: 1; stroke-width: 2; stroke-dasharray: 6; stroke: #000000" d="M 350.781 600.334 C 390.931,485.768 183.664,368.641 73.4156,305.004"/>
      <polyline style="fill: none; stroke-opacity: 1; stroke-width: 2; stroke: #000000" points="82.6393,304.555 71.479,303.887 77.6402,313.216 "/>
    </g>
    <g>
      <path style="fill: none; stroke-opacity: 1; stroke-width: 2; stroke-dasharray: 6; stroke: #000000" d="M 319.912 621.011 C 266.724,618.169 230.036,591.108 213.001,531.697"/>
      <polyline style="fill: none; stroke-opacity: 1; stroke-width: 2; stroke: #000000" points="219.947,537.782 212.384,529.548 210.334,540.539 "/>
    </g>
    <g>
      <path style="fill: none; stroke-opacity: 1; stroke-width: 2; stroke-dasharray: 6; stroke: #000000" d="M 291.046 696.952 C -16.1859,639.448 -11.3527,361.54 21.1189,316.271"/>
      <polyline style="fill: none; stroke-opacity: 1; stroke-width: 2; stroke: #000000" points="20.6564,325.495 22.4222,314.455 12.5307,319.666 "/>
    </g>
    <ellipse style="fill: #fef88f; fill-opacity: 1; stroke-opacity: 1; stroke-width: 2; stroke: #fef88f" cx="851.474" cy="145.514" rx="60.5" ry="60.5"/>
    <text font-size="27.0933" style="fill: #000000; fill-opacity: 1; stroke: none;text-anchor:middle;font-family:sans-serif;font-style:normal;font-weight:normal" x="851.474" y="154.889">
      <tspan x="851.474" y="154.889">experiment</tspan>
    </text>
    <ellipse style="fill: #fef88f; fill-opacity: 1; stroke-opacity: 1; stroke-width: 2; stroke: #fef88f" cx="1055.15" cy="77.025" rx="45.375" ry="45.375"/>
    <g>
      <rect style="fill: #fef88f; fill-opacity: 1; stroke: none" x="1020.25" y="52.475" width="69.8" height="49.1"/>
      <text font-size="20.32" style="fill: #000000; fill-opacity: 1; stroke: none;text-anchor:middle;font-family:sans-serif;font-style:normal;font-weight:normal" x="1055.15" y="71.375">
        <tspan x="1055.15" y="71.375">data</tspan>
        <tspan x="1055.15" y="96.775">Source</tspan>
      </text>
    </g>
    <ellipse style="fill: #fef88f; fill-opacity: 1; stroke-opacity: 1; stroke-width: 2; stroke: #fef88f" cx="1191.49" cy="166.284" rx="45.375" ry="45.375"/>
    <g>
      <rect style="fill: #fef88f; fill-opacity: 1; stroke: none" x="1168.62" y="141.734" width="45.75" height="49.1"/>
      <text font-size="20.32" style="fill: #000000; fill-opacity: 1; stroke: none;text-anchor:middle;font-family:sans-serif;font-style:normal;font-weight:normal" x="1191.49" y="160.634">
        <tspan x="1191.49" y="160.634">data</tspan>
        <tspan x="1191.49" y="186.034">Sink</tspan>
      </text>
    </g>
    <ellipse style="fill: #fef88f; fill-opacity: 1; stroke-opacity: 1; stroke-width: 2; stroke: #fef88f" cx="853.425" cy="363.333" rx="45.375" ry="45.375"/>
    <text font-size="20.32" style="fill: #000000; fill-opacity: 1; stroke: none;text-anchor:middle;font-family:sans-serif;font-style:normal;font-weight:normal" x="853.426" y="357.684">
      <tspan x="853.426" y="357.684">time</tspan>
      <tspan x="853.426" y="383.084">Period</tspan>
    </text>
    <ellipse style="fill: #fef88f; fill-opacity: 1; stroke-opacity: 1; stroke-width: 2; stroke: #fef88f" cx="1049.3" cy="230.243" rx="45.375" ry="45.375"/>
    <text font-size="20.32" style="fill: #000000; fill-opacity: 1; stroke: none;text-anchor:middle;font-family:sans-serif;font-style:normal;font-weight:normal" x="1049.3" y="237.294">
      <tspan x="1049.3" y="237.294">treatment</tspan>
    </text>
    <ellipse style="fill: #fef88f; fill-opacity: 1; stroke-opacity: 1; stroke-width: 2; stroke: #fef88f" cx="987.801" cy="339.087" rx="45.375" ry="45.375"/>
    <text font-size="20.32" style="fill: #000000; fill-opacity: 1; stroke: none;text-anchor:middle;font-family:sans-serif;font-style:normal;font-weight:normal" x="987.802" y="346.138">
      <tspan x="987.802" y="346.138">design</tspan>
    </text>
    <ellipse style="fill: #fef88f; fill-opacity: 1; stroke-opacity: 1; stroke-width: 2; stroke: #fef88f" cx="1113.44" cy="432.307" rx="30.625" ry="30.625"/>
    <text font-size="13.5467" style="fill: #000000; fill-opacity: 1; stroke: none;text-anchor:middle;font-family:sans-serif;font-style:normal;font-weight:normal" x="1113.44" y="428.539">
      <tspan x="1113.44" y="428.539">model</tspan>
      <tspan x="1113.44" y="445.473">Change</tspan>
    </text>
    <g>
      <line style="fill: none; stroke-opacity: 1; stroke-width: 2; stroke: #000000" x1="908.011" y1="169.729" x2="997.726" y2="208.155"/>
      <polygon style="fill: #000000; fill-opacity: 1; stroke-opacity: 1; stroke-width: 2; stroke: #000000" fill-rule="evenodd" points="1004.62,211.108 993.459,211.767 997.726,208.155 997.396,202.574 "/>
    </g>
    <g>
      <line style="fill: none; stroke-opacity: 1; stroke-width: 2; stroke: #000000" x1="886.754" y1="195.608" x2="955.494" y2="293.213"/>
      <polygon style="fill: #000000; fill-opacity: 1; stroke-opacity: 1; stroke-width: 2; stroke: #000000" fill-rule="evenodd" points="959.812,299.345 949.966,294.048 955.494,293.213 958.142,288.29 "/>
    </g>
    <g>
      <line style="fill: none; stroke-opacity: 1; stroke-width: 2; stroke: #000000" x1="852.025" y1="207.001" x2="852.922" y2="307.219"/>
      <polygon style="fill: #000000; fill-opacity: 1; stroke-opacity: 1; stroke-width: 2; stroke: #000000" fill-rule="evenodd" points="852.99,314.719 847.9,304.764 852.922,307.219 857.9,304.674 "/>
    </g>
    <g>
      <line style="fill: none; stroke-opacity: 1; stroke-width: 2; stroke: #000000" x1="1062.33" y1="271.288" x2="1100.92" y2="392.879"/>
      <polygon style="fill: #000000; fill-opacity: 1; stroke-opacity: 1; stroke-width: 2; stroke: #000000" fill-rule="evenodd" points="1103.19,400.028 1095.4,392.009 1100.92,392.879 1104.93,388.984 "/>
    </g>
    <g>
      <line style="fill: none; stroke-opacity: 1; stroke-width: 2; stroke: #000000" x1="912.841" y1="149.262" x2="1135.48" y2="162.862"/>
      <polygon style="fill: #000000; fill-opacity: 1; stroke-opacity: 1; stroke-width: 2; stroke: #000000" fill-rule="evenodd" points="1142.97,163.32 1132.68,167.701 1135.48,162.862 1133.29,157.719 "/>
    </g>
    <g>
      <line style="fill: none; stroke-opacity: 1; stroke-width: 2; stroke: #000000" x1="909.764" y1="125.913" x2="1002.06" y2="94.876"/>
      <polygon style="fill: #000000; fill-opacity: 1; stroke-opacity: 1; stroke-width: 2; stroke: #000000" fill-rule="evenodd" points="1009.17,92.4855 1001.29,100.412 1002.06,94.876 998.098,90.9336 "/>
    </g>
    <g>
      <path style="fill: none; stroke-opacity: 1; stroke-width: 2; stroke-dasharray: 6; stroke: #000000" d="M 321.717 546.327 C 1112.78,825.251 1318.73,519.594 1081.16,120.712"/>
      <polyline style="fill: none; stroke-opacity: 1; stroke-width: 2; stroke: #000000" points="1089.43,124.824 1080.02,118.79 1080.84,129.941 "/>
    </g>
    <g>
      <path style="fill: none; stroke-opacity: 1; stroke-width: 2; stroke-dasharray: 6; stroke: #000000" d="M 365.317 629.003 C 1121.22,858.753 1318.73,519.595 1081.17,120.712"/>
      <polyline style="fill: none; stroke-opacity: 1; stroke-width: 2; stroke: #000000" points="1089.43,124.824 1080.02,118.791 1080.84,129.941 "/>
    </g>
    <g>
      <path style="fill: none; stroke-opacity: 1; stroke-width: 2; stroke-dasharray: 6; stroke: #000000" d="M 325.981 704.711 C 1140.34,914.465 1318.73,519.59 1081.16,120.707"/>
      <polyline style="fill: none; stroke-opacity: 1; stroke-width: 2; stroke: #000000" points="1089.43,124.819 1080.02,118.786 1080.84,129.936 "/>
    </g>
  </g>
</svg>
