<?xml version="1.0" encoding="UTF-8" standalone="no"?><svg xmlns="http://www.w3.org/2000/svg" xmlns:xlink="http://www.w3.org/1999/xlink" contentScriptType="application/ecmascript" contentStyleType="text/css" height="571px" preserveAspectRatio="none" style="width:233px;height:571px;" version="1.1" viewBox="0 0 233 571" width="233px" zoomAndPan="magnify"><defs><filter height="300%" id="fflauib" width="300%" x="-1" y="-1"><feGaussianBlur result="blurOut" stdDeviation="2.0"/><feColorMatrix in="blurOut" result="blurOut2" type="matrix" values="0 0 0 0 0 0 0 0 0 0 0 0 0 0 0 0 0 0 .4 0"/><feOffset dx="4.0" dy="4.0" in="blurOut2" result="blurOut3"/><feBlend in="SourceGraphic" in2="blurOut3" mode="normal"/></filter></defs><g><ellipse cx="120" cy="20" fill="#000000" filter="url(#fflauib)" rx="10" ry="10" style="stroke: none; stroke-width: 1.0;"/><rect fill="#FEFECE" filter="url(#fflauib)" height="33.9688" rx="12.5" ry="12.5" style="stroke: #A80036; stroke-width: 1.5;" width="89" x="75.5" y="50"/><text fill="#000000" font-family="sans-serif" font-size="12" lengthAdjust="spacingAndGlyphs" textLength="69" x="85.5" y="71.1387">sys1.init1()</text><rect fill="#FEFECE" filter="url(#fflauib)" height="33.9688" rx="12.5" ry="12.5" style="stroke: #A80036; stroke-width: 1.5;" width="112" x="64" y="191.9688"/><text fill="#000000" font-family="sans-serif" font-size="12" lengthAdjust="spacingAndGlyphs" textLength="92" x="74" y="213.1074">sys1.chaos(...)</text><rect fill="#FEFECE" filter="url(#fflauib)" height="33.9688" rx="12.5" ry="12.5" style="stroke: #A80036; stroke-width: 1.5;" width="125" x="57.5" y="245.9375"/><text fill="#000000" font-family="sans-serif" font-size="12" lengthAdjust="spacingAndGlyphs" textLength="42" x="67.5" y="267.0762">output</text><text fill="#000000" font-family="sans-serif" font-size="12" font-weight="bold" lengthAdjust="spacingAndGlyphs" textLength="7" x="113.5" y="267.0762">x</text><text fill="#000000" font-family="sans-serif" font-size="12" lengthAdjust="spacingAndGlyphs" textLength="13" x="124.5" y="267.0762">to</text><text fill="#000000" font-family="sans-serif" font-size="12" font-weight="bold" lengthAdjust="spacingAndGlyphs" textLength="31" x="141.5" y="267.0762">srsX</text><rect fill="#FEFECE" filter="url(#fflauib)" height="47.9375" rx="12.5" ry="12.5" style="stroke: #A80036; stroke-width: 1.5;" width="168" x="36" y="299.9063"/><text fill="#000000" font-family="sans-serif" font-size="12" lengthAdjust="spacingAndGlyphs" textLength="91" x="46" y="321.0449">update drivers</text><text fill="#000000" font-family="sans-serif" font-size="12" lengthAdjust="spacingAndGlyphs" textLength="148" x="46" y="335.0137">update graph structure</text><rect fill="#FEFECE" filter="url(#fflauib)" height="33.9688" rx="12.5" ry="12.5" style="stroke: #A80036; stroke-width: 1.5;" width="126" x="57" y="367.8438"/><text fill="#000000" font-family="sans-serif" font-size="12" lengthAdjust="spacingAndGlyphs" textLength="106" x="67" y="388.9824">reset decorators</text><rect fill="#FEFECE" filter="url(#fflauib)" height="36.9688" rx="12.5" ry="12.5" style="stroke: #A80036; stroke-width: 1.5;" width="68" x="86" y="421.8125"/><text fill="#000000" font-family="sans-serif" font-size="12" font-style="italic" lengthAdjust="spacingAndGlyphs" textLength="5" x="96" y="442.9512">t</text><text fill="#000000" font-family="sans-serif" font-size="9" lengthAdjust="spacingAndGlyphs" textLength="3" x="101" y="446.6587">i</text><text fill="#000000" font-family="sans-serif" font-size="12" lengthAdjust="spacingAndGlyphs" textLength="10" x="108" y="442.9512">=</text><text fill="#000000" font-family="sans-serif" font-size="12" font-style="italic" lengthAdjust="spacingAndGlyphs" textLength="5" x="122" y="442.9512">t</text><text fill="#000000" font-family="sans-serif" font-size="9" lengthAdjust="spacingAndGlyphs" textLength="17" x="127" y="446.6587">i+1</text><polygon fill="#FEFECE" filter="url(#fflauib)" points="54,147.9688,186,147.9688,198,159.9688,186,171.9688,54,171.9688,42,159.9688,54,147.9688" style="stroke: #A80036; stroke-width: 1.5;"/><text fill="#000000" font-family="sans-serif" font-size="11" font-style="italic" lengthAdjust="spacingAndGlyphs" textLength="4" x="54" y="162.2769">t</text><text fill="#000000" font-family="sans-serif" font-size="8" lengthAdjust="spacingAndGlyphs" textLength="14" x="58" y="165.2969">i+1</text><text fill="#000000" font-family="sans-serif" font-size="11" lengthAdjust="spacingAndGlyphs" textLength="100" x="76" y="162.2769">= tmr1.nextTime(</text><text fill="#000000" font-family="sans-serif" font-size="11" font-style="italic" lengthAdjust="spacingAndGlyphs" textLength="4" x="176" y="162.2769">t</text><text fill="#000000" font-family="sans-serif" font-size="8" lengthAdjust="spacingAndGlyphs" textLength="2" x="180" y="165.2969">i</text><text fill="#000000" font-family="sans-serif" font-size="11" lengthAdjust="spacingAndGlyphs" textLength="4" x="182" y="162.2769">)</text><polygon fill="#FEFECE" filter="url(#fflauib)" points="120,103.9688,132,115.9688,120,127.9688,108,115.9688,120,103.9688" style="stroke: #A80036; stroke-width: 1.5;"/><polygon fill="#FEFECE" filter="url(#fflauib)" points="66,500.7813,174,500.7813,186,512.7813,174,524.7813,66,524.7813,54,512.7813,66,500.7813" style="stroke: #A80036; stroke-width: 1.5;"/><text fill="#000000" font-family="sans-serif" font-size="11" lengthAdjust="spacingAndGlyphs" textLength="108" x="66" y="516.5894">stoppingCondition?</text><ellipse cx="120" cy="554.7813" fill="none" filter="url(#fflauib)" rx="10" ry="10" style="stroke: #000000; stroke-width: 1.0;"/><ellipse cx="120.5" cy="555.2813" fill="#000000" filter="url(#fflauib)" rx="6" ry="6" style="stroke: none; stroke-width: 1.0;"/><line style="stroke: #A80036; stroke-width: 1.5;" x1="120" x2="120" y1="30" y2="50"/><polygon fill="#A80036" points="116,40,120,50,124,40,120,44" style="stroke: #A80036; stroke-width: 1.0;"/><line style="stroke: #A80036; stroke-width: 1.5;" x1="120" x2="120" y1="225.9375" y2="245.9375"/><polygon fill="#A80036" points="116,235.9375,120,245.9375,124,235.9375,120,239.9375" style="stroke: #A80036; stroke-width: 1.0;"/><line style="stroke: #A80036; stroke-width: 1.5;" x1="120" x2="120" y1="279.9063" y2="299.9063"/><polygon fill="#A80036" points="116,289.9063,120,299.9063,124,289.9063,120,293.9063" style="stroke: #A80036; stroke-width: 1.0;"/><line style="stroke: #A80036; stroke-width: 1.5;" x1="120" x2="120" y1="347.8438" y2="367.8438"/><polygon fill="#A80036" points="116,357.8438,120,367.8438,124,357.8438,120,361.8438" style="stroke: #A80036; stroke-width: 1.0;"/><line style="stroke: #A80036; stroke-width: 1.5;" x1="120" x2="120" y1="401.8125" y2="421.8125"/><polygon fill="#A80036" points="116,411.8125,120,421.8125,124,411.8125,120,415.8125" style="stroke: #A80036; stroke-width: 1.0;"/><line style="stroke: #A80036; stroke-width: 1.5;" x1="120" x2="120" y1="171.9688" y2="191.9688"/><polygon fill="#A80036" points="116,181.9688,120,191.9688,124,181.9688,120,185.9688" style="stroke: #A80036; stroke-width: 1.0;"/><line style="stroke: #A80036; stroke-width: 1.5;" x1="120" x2="120" y1="458.7813" y2="468.7813"/><line style="stroke: #A80036; stroke-width: 1.5;" x1="120" x2="216" y1="468.7813" y2="468.7813"/><polygon fill="#A80036" points="212,323.375,216,313.375,220,323.375,216,319.375" style="stroke: #A80036; stroke-width: 1.5;"/><line style="stroke: #A80036; stroke-width: 1.5;" x1="216" x2="216" y1="159.9688" y2="468.7813"/><line style="stroke: #A80036; stroke-width: 1.5;" x1="216" x2="198" y1="159.9688" y2="159.9688"/><polygon fill="#A80036" points="208,155.9688,198,159.9688,208,163.9688,204,159.9688" style="stroke: #A80036; stroke-width: 1.0;"/><line style="stroke: #A80036; stroke-width: 1.5;" x1="42" x2="24" y1="159.9688" y2="159.9688"/><polygon fill="#A80036" points="20,309.375,24,319.375,28,309.375,24,313.375" style="stroke: #A80036; stroke-width: 1.5;"/><line style="stroke: #A80036; stroke-width: 1.5;" x1="24" x2="24" y1="159.9688" y2="480.7813"/><line style="stroke: #A80036; stroke-width: 1.5;" x1="24" x2="120" y1="480.7813" y2="480.7813"/><line style="stroke: #A80036; stroke-width: 1.5;" x1="120" x2="120" y1="480.7813" y2="500.7813"/><polygon fill="#A80036" points="116,490.7813,120,500.7813,124,490.7813,120,494.7813" style="stroke: #A80036; stroke-width: 1.0;"/><line style="stroke: #A80036; stroke-width: 1.5;" x1="120" x2="120" y1="127.9688" y2="147.9688"/><polygon fill="#A80036" points="116,137.9688,120,147.9688,124,137.9688,120,141.9688" style="stroke: #A80036; stroke-width: 1.0;"/><line style="stroke: #A80036; stroke-width: 1.5;" x1="186" x2="228" y1="512.7813" y2="512.7813"/><polygon fill="#A80036" points="224,347.375,228,337.375,232,347.375,228,343.375" style="stroke: #A80036; stroke-width: 1.5;"/><line style="stroke: #A80036; stroke-width: 1.5;" x1="228" x2="228" y1="115.9688" y2="512.7813"/><line style="stroke: #A80036; stroke-width: 1.5;" x1="228" x2="132" y1="115.9688" y2="115.9688"/><polygon fill="#A80036" points="142,111.9688,132,115.9688,142,119.9688,138,115.9688" style="stroke: #A80036; stroke-width: 1.0;"/><line style="stroke: #A80036; stroke-width: 1.5;" x1="120" x2="120" y1="83.9688" y2="103.9688"/><polygon fill="#A80036" points="116,93.9688,120,103.9688,124,93.9688,120,97.9688" style="stroke: #A80036; stroke-width: 1.0;"/><line style="stroke: #A80036; stroke-width: 1.5;" x1="120" x2="120" y1="524.7813" y2="544.7813"/><polygon fill="#A80036" points="116,534.7813,120,544.7813,124,534.7813,120,538.7813" style="stroke: #A80036; stroke-width: 1.0;"/></g></svg>