<?xml version="1.0" encoding="UTF-8" standalone="no"?>
<!DOCTYPE svg PUBLIC "-//W3C//DTD SVG 1.0//EN" "http://www.w3.org/TR/2001/PR-SVG-20010719/DTD/svg10.dtd">
<svg width="18cm" height="45cm" viewBox="208 135 356 892" xmlns="http://www.w3.org/2000/svg" xmlns:xlink="http://www.w3.org/1999/xlink">
  <defs/>
  <g id="Arrière-plan">
    <rect style="fill: #de8774; fill-opacity: 1; stroke-opacity: 1; stroke-width: 2; stroke-linejoin: round; stroke: #de8774" x="209.9" y="160.6" width="350.8" height="839.4" rx="2.35099e-37" ry="2.35099e-37"/>
    <rect style="fill: #ffc0cb; fill-opacity: 1; stroke-opacity: 1; stroke-width: 2; stroke-linejoin: round; stroke: #ffc0cb" x="226.9" y="357.8" width="320" height="453.2" rx="2.35099e-37" ry="2.35099e-37"/>
    <g>
      <polygon style="fill: #ffffff; fill-opacity: 1; stroke-opacity: 1; stroke-width: 2; stroke: #000000" fill-rule="evenodd" points="333.898,228.8 459.145,228.8 439.491,282.8 314.244,282.8 "/>
      <text font-size="12.8" style="fill: #000000; fill-opacity: 1; stroke: none;text-anchor:middle;font-family:sans-serif;font-style:normal;font-weight:normal" x="386.695" y="251.7">
        <tspan x="386.695" y="251.7">in: initial state</tspan>
        <tspan x="386.695" y="267.7">X(t)</tspan>
      </text>
    </g>
    <g>
      <path style="fill: #ffffff; fill-opacity: 1; stroke-opacity: 1; stroke-width: 2; stroke: #000000" fill-rule="evenodd" d="M 323.173 328 L 450.215,328 C 467.756,328 481.975,339.641 481.975,354 C 481.975,368.359 467.756,380 450.215,380 L 323.173,380 C 305.632,380 291.412,368.359 291.412,354 C 291.412,339.641 305.632,328 323.173,328z"/>
      <text font-size="12.8" style="fill: #000000; fill-opacity: 1; stroke: none;text-anchor:middle;font-family:sans-serif;font-style:normal;font-weight:normal" x="386.694" y="350">
        <tspan x="386.694" y="350">start: causal step</tspan>
        <tspan x="386.694" y="366">i</tspan>
      </text>
    </g>
    <g>
      <path style="fill: #ffffff; fill-opacity: 1; stroke-opacity: 1; stroke-width: 2; stroke: #000000" fill-rule="evenodd" d="M 325.973 790 L 447.415,790 C 464.182,790 477.775,801.225 477.775,815.071 C 477.775,828.917 464.182,840.142 447.415,840.142 L 325.973,840.142 C 309.205,840.142 295.612,828.917 295.612,815.071 C 295.612,801.225 309.205,790 325.973,790z"/>
      <text font-size="12.8" style="fill: #000000; fill-opacity: 1; stroke: none;text-anchor:middle;font-family:sans-serif;font-style:normal;font-weight:normal" x="386.694" y="811.071">
        <tspan x="386.694" y="811.071">end: causal step</tspan>
        <tspan x="386.694" y="827.071">i</tspan>
      </text>
    </g>
    <g>
      <polygon style="fill: #ffffff; fill-opacity: 1; stroke-opacity: 1; stroke-width: 2; stroke: #000000" fill-rule="evenodd" points="333.048,879.8 459.995,879.8 440.341,933.8 313.394,933.8 "/>
      <text font-size="12.8" style="fill: #000000; fill-opacity: 1; stroke: none;text-anchor:middle;font-family:sans-serif;font-style:normal;font-weight:normal" x="386.695" y="902.7">
        <tspan x="386.695" y="902.7">out: final state</tspan>
        <tspan x="386.695" y="918.7">X(t+dt)</tspan>
      </text>
    </g>
    <g>
      <path style="fill: #ffffff; fill-opacity: 1; stroke-opacity: 1; stroke-width: 2; stroke: #000000" fill-rule="evenodd" d="M 338.098 137.8 L 435.29,137.8 C 448.71,137.8 459.588,148.577 459.588,161.871 C 459.588,175.165 448.71,185.942 435.29,185.942 L 338.098,185.942 C 324.679,185.942 313.8,175.165 313.8,161.871 C 313.8,148.577 324.679,137.8 338.098,137.8z"/>
      <text font-size="12.8" style="fill: #000000; fill-opacity: 1; stroke: none;text-anchor:middle;font-family:sans-serif;font-style:normal;font-weight:normal" x="386.694" y="157.871">
        <tspan x="386.694" y="157.871">start: date t</tspan>
        <tspan x="386.694" y="173.871">(duration dt)</tspan>
      </text>
    </g>
    <g>
      <path style="fill: #ffffff; fill-opacity: 1; stroke-opacity: 1; stroke-width: 2; stroke: #000000" fill-rule="evenodd" d="M 331.449 973.8 L 441.941,973.8 C 457.197,973.8 469.564,985.425 469.564,999.764 C 469.564,1014.1 457.197,1025.73 441.941,1025.73 L 331.449,1025.73 C 316.193,1025.73 303.826,1014.1 303.826,999.764 C 303.826,985.425 316.193,973.8 331.449,973.8z"/>
      <text font-size="12.8" style="fill: #000000; fill-opacity: 1; stroke: none;text-anchor:middle;font-family:sans-serif;font-style:normal;font-weight:normal" x="386.695" y="1003.76">
        <tspan x="386.695" y="1003.76">end: date t+dt</tspan>
      </text>
    </g>
    <g>
      <rect style="fill: #ffffff; fill-opacity: 1; stroke-opacity: 1; stroke-width: 2; stroke: #000000" x="318.52" y="518.112" width="136.35" height="38" rx="0" ry="0"/>
      <text font-size="12.8" style="fill: #000000; fill-opacity: 1; stroke: none;text-anchor:middle;font-family:sans-serif;font-style:normal;font-weight:normal" x="386.695" y="541.012">
        <tspan x="386.695" y="541.012">compute changes</tspan>
      </text>
    </g>
    <g>
      <rect style="fill: #ffffff; fill-opacity: 1; stroke-opacity: 1; stroke-width: 2; stroke: #000000" x="243.55" y="603.112" width="132.5" height="54" rx="0" ry="0"/>
      <text font-size="12.8" style="fill: #000000; fill-opacity: 1; stroke: none;text-anchor:middle;font-family:sans-serif;font-style:normal;font-weight:normal" x="309.8" y="626.012">
        <tspan x="309.8" y="626.012">apply changes</tspan>
        <tspan x="309.8" y="642.012">in state variables</tspan>
      </text>
    </g>
    <g>
      <polyline style="fill: none; stroke-opacity: 1; stroke-width: 2; stroke: #000000" points="386.694,556.112 386.694,580 466.8,580 466.8,601.376 "/>
      <polygon style="fill: #000000; fill-opacity: 1; stroke-opacity: 1; stroke-width: 2; stroke: #000000" fill-rule="evenodd" points="466.8,608.876 461.8,598.876 466.8,601.376 471.8,598.876 "/>
    </g>
    <g>
      <rect style="fill: #ffffff; fill-opacity: 1; stroke-opacity: 1; stroke-width: 2; stroke: #000000" x="397.274" y="611.112" width="139.05" height="38" rx="0" ry="0"/>
      <text font-size="12.8" style="fill: #000000; fill-opacity: 1; stroke: none;text-anchor:middle;font-family:sans-serif;font-style:normal;font-weight:normal" x="466.799" y="634.012">
        <tspan x="466.799" y="634.012">cleanup object list</tspan>
      </text>
    </g>
    <g>
      <polyline style="fill: none; stroke-opacity: 1; stroke-width: 2; stroke: #000000" points="386.695,557.122 386.695,580.117 309.8,580.117 309.8,593.376 "/>
      <polygon style="fill: #000000; fill-opacity: 1; stroke-opacity: 1; stroke-width: 2; stroke: #000000" fill-rule="evenodd" points="309.8,600.876 304.8,590.876 309.8,593.376 314.8,590.876 "/>
    </g>
    <g>
      <polyline style="fill: none; stroke-opacity: 1; stroke-width: 2; stroke: #000000" points="386.695,283.807 386.695,305.423 386.694,305.423 386.694,317.303 "/>
      <polygon style="fill: #000000; fill-opacity: 1; stroke-opacity: 1; stroke-width: 2; stroke: #000000" fill-rule="evenodd" points="386.694,324.803 381.694,314.803 386.694,317.303 391.694,314.803 "/>
    </g>
    <g>
      <polyline style="fill: none; stroke-opacity: 1; stroke-width: 2; stroke: #000000" points="386.694,380.961 386.694,400.377 386.695,400.377 386.695,410.057 "/>
      <polygon style="fill: #000000; fill-opacity: 1; stroke-opacity: 1; stroke-width: 2; stroke: #000000" fill-rule="evenodd" points="386.695,417.557 381.695,407.557 386.695,410.057 391.695,407.557 "/>
    </g>
    <g>
      <polyline style="fill: none; stroke-opacity: 1; stroke-width: 2; stroke: #000000" points="386.694,841.144 386.694,859.969 386.695,859.969 386.695,869.057 "/>
      <polygon style="fill: #000000; fill-opacity: 1; stroke-opacity: 1; stroke-width: 2; stroke: #000000" fill-rule="evenodd" points="386.695,876.557 381.695,866.557 386.695,869.057 391.695,866.557 "/>
    </g>
    <g>
      <polyline style="fill: none; stroke-opacity: 1; stroke-width: 2; stroke: #000000" points="478.57,813.31 546.9,812 546.9,357 492.538,355.982 "/>
      <polygon style="fill: #000000; fill-opacity: 1; stroke-opacity: 1; stroke-width: 2; stroke: #000000" fill-rule="evenodd" points="485.04,355.842 495.131,351.03 492.538,355.982 494.944,361.028 "/>
    </g>
    <g>
      <polyline style="fill: none; stroke-opacity: 1; stroke-width: 2; stroke: #000000" points="309.8,658.102 309.8,672 386.694,672 386.694,685.072 "/>
      <polygon style="fill: #000000; fill-opacity: 1; stroke-opacity: 1; stroke-width: 2; stroke: #000000" fill-rule="evenodd" points="386.694,692.572 381.694,682.572 386.694,685.072 391.694,682.572 "/>
    </g>
    <g>
      <polyline style="fill: none; stroke-opacity: 1; stroke-width: 2; stroke: #000000" points="466.799,650.122 466.799,672.457 386.694,672.457 386.694,685.057 "/>
      <polygon style="fill: #000000; fill-opacity: 1; stroke-opacity: 1; stroke-width: 2; stroke: #000000" fill-rule="evenodd" points="386.694,692.557 381.694,682.557 386.694,685.057 391.694,682.557 "/>
    </g>
    <g>
      <polyline style="fill: none; stroke-opacity: 1; stroke-width: 2; stroke: #000000" points="386.695,934.807 386.695,953.822 386.695,953.822 386.695,963.102 "/>
      <polygon style="fill: #000000; fill-opacity: 1; stroke-opacity: 1; stroke-width: 2; stroke: #000000" fill-rule="evenodd" points="386.695,970.602 381.695,960.602 386.695,963.102 391.695,960.602 "/>
    </g>
    <g>
      <polyline style="fill: none; stroke-opacity: 1; stroke-width: 2; stroke: #000000" points="386.694,186.936 386.694,207.365 386.695,207.365 386.695,218.057 "/>
      <polygon style="fill: #000000; fill-opacity: 1; stroke-opacity: 1; stroke-width: 2; stroke: #000000" fill-rule="evenodd" points="386.695,225.557 381.695,215.557 386.695,218.057 391.695,215.557 "/>
    </g>
    <g>
      <polygon style="fill: #ffffff; fill-opacity: 1; stroke-opacity: 1; stroke-width: 2; stroke: #000000" fill-rule="evenodd" points="288.648,420.8 504.395,420.8 484.741,474.8 268.994,474.8 "/>
      <text font-size="12.8" style="fill: #000000; fill-opacity: 1; stroke: none;text-anchor:middle;font-family:sans-serif;font-style:normal;font-weight:normal" x="386.695" y="443.7">
        <tspan x="386.695" y="443.7">in: initial intermediate state</tspan>
        <tspan x="386.695" y="459.7">X(t,i)</tspan>
      </text>
    </g>
    <text font-size="12.8" style="fill: #000000; fill-opacity: 1; stroke: none;text-anchor:start;font-family:sans-serif;font-style:normal;font-weight:normal" x="478.9" y="789">
      <tspan x="478.9" y="789">i → i+1</tspan>
      <tspan x="478.9" y="805">i&lt;c</tspan>
    </text>
    <g>
      <polygon style="fill: #ffffff; fill-opacity: 1; stroke-opacity: 1; stroke-width: 2; stroke: #000000" fill-rule="evenodd" points="289.822,695.8 503.219,695.8 483.565,749.8 270.168,749.8 "/>
      <text font-size="12.8" style="fill: #000000; fill-opacity: 1; stroke: none;text-anchor:middle;font-family:sans-serif;font-style:normal;font-weight:normal" x="386.694" y="718.7">
        <tspan x="386.694" y="718.7">out: final intermediate state</tspan>
        <tspan x="386.694" y="734.7">X(t,i+1)</tspan>
      </text>
    </g>
    <g>
      <polyline style="fill: none; stroke-opacity: 1; stroke-width: 2; stroke: #000000" points="386.694,750.807 386.694,769.902 386.694,769.902 386.694,779.262 "/>
      <polygon style="fill: #000000; fill-opacity: 1; stroke-opacity: 1; stroke-width: 2; stroke: #000000" fill-rule="evenodd" points="386.694,786.762 381.694,776.762 386.694,779.262 391.694,776.762 "/>
    </g>
    <g>
      <polyline style="fill: none; stroke-opacity: 1; stroke-width: 2; stroke: #000000" points="386.695,475.807 386.695,496.455 386.695,496.455 386.695,507.366 "/>
      <polygon style="fill: #000000; fill-opacity: 1; stroke-opacity: 1; stroke-width: 2; stroke: #000000" fill-rule="evenodd" points="386.695,514.866 381.695,504.866 386.695,507.366 391.695,504.866 "/>
    </g>
    <g>
      <polyline style="fill: none; stroke-opacity: 1; stroke-width: 2; stroke: #000000" points="470.409,1000.83 562.9,1002 561.9,161 470.281,161.455 "/>
      <polygon style="fill: #000000; fill-opacity: 1; stroke-opacity: 1; stroke-width: 2; stroke: #000000" fill-rule="evenodd" points="462.781,161.493 472.756,156.443 470.281,161.455 472.806,166.443 "/>
    </g>
    <text font-size="12.8" style="fill: #000000; fill-opacity: 1; stroke: none;text-anchor:start;font-family:sans-serif;font-style:normal;font-weight:normal" x="477.9" y="978">
      <tspan x="477.9" y="978">t → t+dt</tspan>
      <tspan x="477.9" y="994">t&lt;tmax</tspan>
    </text>
    <text font-size="16.9333" style="fill: #000000; fill-opacity: 1; stroke: none;text-anchor:start;font-family:sans-serif;font-style:normal;font-weight:normal" x="233.9" y="376">
      <tspan x="233.9" y="376">causal</tspan>
      <tspan x="233.9" y="397.167">loop</tspan>
    </text>
    <text font-size="16.9333" style="fill: #000000; fill-opacity: 1; stroke: none;text-anchor:start;font-family:sans-serif;font-style:normal;font-weight:normal" x="221.8" y="183.55">
      <tspan x="221.8" y="183.55">temporal</tspan>
      <tspan x="221.8" y="204.717">loop</tspan>
    </text>
  </g>
</svg>
