<?xml version="1.0" encoding="UTF-8" standalone="no"?>
<!DOCTYPE svg PUBLIC "-//W3C//DTD SVG 1.0//EN" "http://www.w3.org/TR/2001/PR-SVG-20010719/DTD/svg10.dtd">
<svg width="22cm" height="13cm" viewBox="457 241 437 248" xmlns="http://www.w3.org/2000/svg" xmlns:xlink="http://www.w3.org/1999/xlink">
  <defs/>
  <g id="Arrière-plan">
    <ellipse style="fill: #ffc0cb; fill-opacity: 1; stroke-opacity: 1; stroke-width: 2; stroke: #000000" cx="653.5" cy="368.7" rx="44.5" ry="44.5"/>
    <text font-size="16.9333" style="fill: #000000; fill-opacity: 1; stroke: none;text-anchor:middle;font-family:sans-serif;font-style:normal;font-weight:normal" x="653.5" y="374.575">
      <tspan x="653.5" y="374.575">Record</tspan>
    </text>
    <ellipse style="fill: #ffc0cb; fill-opacity: 1; stroke-opacity: 1; stroke-width: 2; stroke: #000000" cx="502.65" cy="443.3" rx="44.5" ry="44.5"/>
    <text font-size="16.9333" style="fill: #000000; fill-opacity: 1; stroke: none;text-anchor:middle;font-family:sans-serif;font-style:normal;font-weight:normal" x="502.65" y="438.592">
      <tspan x="502.65" y="438.592">Table of</tspan>
      <tspan x="502.65" y="459.758">elements</tspan>
    </text>
    <ellipse style="fill: #ffc0cb; fill-opacity: 1; stroke-opacity: 1; stroke-width: 2; stroke: #000000" cx="502.65" cy="287.1" rx="44.5" ry="44.5"/>
    <text font-size="16.9333" style="fill: #000000; fill-opacity: 1; stroke: none;text-anchor:middle;font-family:sans-serif;font-style:normal;font-weight:normal" x="502.65" y="292.975">
      <tspan x="502.65" y="292.975">Field</tspan>
    </text>
    <ellipse style="fill: #ffc0cb; fill-opacity: 1; stroke-opacity: 1; stroke-width: 2; stroke: #000000" cx="847.8" cy="368.7" rx="44.5" ry="44.5"/>
    <text font-size="16.9333" style="fill: #000000; fill-opacity: 1; stroke: none;text-anchor:middle;font-family:sans-serif;font-style:normal;font-weight:normal" x="847.8" y="363.992">
      <tspan x="847.8" y="363.992">Table of</tspan>
      <tspan x="847.8" y="385.158">records</tspan>
    </text>
    <g>
      <line style="fill: none; stroke-opacity: 1; stroke-width: 2; stroke: #000000" x1="613.486" y1="347.055" x2="551.228" y2="313.377"/>
      <polygon style="fill: #000000; fill-opacity: 1; stroke-opacity: 1; stroke-width: 2; stroke: #000000" fill-rule="evenodd" points="544.631,309.809 555.806,310.169 551.228,313.377 551.048,318.965 "/>
    </g>
    <g>
      <line style="fill: none; stroke-opacity: 1; stroke-width: 2; stroke: #000000" x1="612.722" y1="388.866" x2="552.156" y2="418.818"/>
      <polygon style="fill: #000000; fill-opacity: 1; stroke-opacity: 1; stroke-width: 2; stroke: #000000" fill-rule="evenodd" points="545.433,422.143 552.18,413.228 552.156,418.818 556.613,422.192 "/>
    </g>
    <g>
      <path style="fill: none; stroke-opacity: 1; stroke-width: 2; stroke: #000000" d="M 684.128 402.353 C 724.628,446.853 781.489,433.637 808.333,407.349"/>
      <polygon style="fill: #000000; fill-opacity: 1; stroke-opacity: 1; stroke-width: 2; stroke: #000000" fill-rule="evenodd" points="813.692,402.102 810.045,412.671 808.333,407.349 803.049,405.526 "/>
    </g>
    <g>
      <path style="fill: none; stroke-opacity: 1; stroke-width: 2; stroke: #000000" d="M 816.101 336.054 C 779.301,298.154 733.516,290.368 692.974,330.057"/>
      <polygon style="fill: #000000; fill-opacity: 1; stroke-opacity: 1; stroke-width: 2; stroke: #000000" fill-rule="evenodd" points="687.614,335.304 691.262,324.736 692.974,330.057 698.258,331.882 "/>
    </g>
  </g>
</svg>
